<?xml version="1.0" encoding="UTF-8" standalone="no"?>
<!DOCTYPE svg PUBLIC "-//W3C//DTD SVG 1.1//EN"
 "http://www.w3.org/Graphics/SVG/1.1/DTD/svg11.dtd">
<!-- Generated by graphviz version 2.26.3 (20100126.1600)
 -->
<!-- Title: Finite_Automata_Graph Pages: 1 -->
<svg width="62pt" height="942pt"
 viewBox="0.00 0.00 62.00 942.00" xmlns="http://www.w3.org/2000/svg" xmlns:xlink="http://www.w3.org/1999/xlink">
<g id="graph1" class="graph" transform="scale(1 1) rotate(0) translate(4 938)">
<title>Finite_Automata_Graph</title>
<polygon fill="white" stroke="white" points="-4,5 -4,-938 59,-938 59,5 -4,5"/>
<!-- 0 -->
<g id="node1" class="node"><title>0</title>
<ellipse fill="none" stroke="#000000" cx="27" cy="-916" rx="18" ry="18"/>
<text text-anchor="middle" x="27" y="-911.4" font-family="Times Roman,serif" font-size="14.00">0</text>
</g>
<!-- 1 -->
<g id="node2" class="node"><title>1</title>
<ellipse fill="none" stroke="#000000" cx="27" cy="-828" rx="18" ry="18"/>
<text text-anchor="middle" x="27" y="-823.4" font-family="Times Roman,serif" font-size="14.00">1</text>
</g>
<!-- 0&#45;&gt;1 -->
<g id="edge2" class="edge"><title>0&#45;&gt;1</title>
<path fill="none" stroke="black" d="M27,-897.766C27,-885.849 27,-870.038 27,-856.482"/>
<polygon fill="black" stroke="black" points="30.5001,-856.21 27,-846.21 23.5001,-856.21 30.5001,-856.21"/>
<text text-anchor="middle" x="32" y="-867.4" font-family="Times Roman,serif" font-size="14.00">b</text>
</g>
<!-- 2 -->
<g id="node3" class="node"><title>2</title>
<ellipse fill="none" stroke="#000000" cx="27" cy="-740" rx="18" ry="18"/>
<text text-anchor="middle" x="27" y="-735.4" font-family="Times Roman,serif" font-size="14.00">2</text>
</g>
<!-- 1&#45;&gt;2 -->
<g id="edge4" class="edge"><title>1&#45;&gt;2</title>
<path fill="none" stroke="black" d="M27,-809.766C27,-797.849 27,-782.038 27,-768.482"/>
<polygon fill="black" stroke="black" points="30.5001,-768.21 27,-758.21 23.5001,-768.21 30.5001,-768.21"/>
<text text-anchor="middle" x="29" y="-779.4" font-family="Times Roman,serif" font-size="14.00">i</text>
</g>
<!-- 3 -->
<g id="node4" class="node"><title>3</title>
<ellipse fill="none" stroke="#000000" cx="27" cy="-652" rx="18" ry="18"/>
<text text-anchor="middle" x="27" y="-647.4" font-family="Times Roman,serif" font-size="14.00">3</text>
</g>
<!-- 2&#45;&gt;3 -->
<g id="edge6" class="edge"><title>2&#45;&gt;3</title>
<path fill="none" stroke="black" d="M27,-721.766C27,-709.849 27,-694.038 27,-680.482"/>
<polygon fill="black" stroke="black" points="30.5001,-680.21 27,-670.21 23.5001,-680.21 30.5001,-680.21"/>
<text text-anchor="middle" x="30" y="-691.4" font-family="Times Roman,serif" font-size="14.00">r</text>
</g>
<!-- 4 -->
<g id="node5" class="node"><title>4</title>
<ellipse fill="none" stroke="#000000" cx="27" cy="-564" rx="18" ry="18"/>
<text text-anchor="middle" x="27" y="-559.4" font-family="Times Roman,serif" font-size="14.00">4</text>
</g>
<!-- 3&#45;&gt;4 -->
<g id="edge8" class="edge"><title>3&#45;&gt;4</title>
<path fill="none" stroke="black" d="M27,-633.766C27,-621.849 27,-606.038 27,-592.482"/>
<polygon fill="black" stroke="black" points="30.5001,-592.21 27,-582.21 23.5001,-592.21 30.5001,-592.21"/>
<text text-anchor="middle" x="30" y="-603.4" font-family="Times Roman,serif" font-size="14.00">t</text>
</g>
<!-- 5 -->
<g id="node6" class="node"><title>5</title>
<ellipse fill="none" stroke="#000000" cx="27" cy="-476" rx="18" ry="18"/>
<text text-anchor="middle" x="27" y="-471.4" font-family="Times Roman,serif" font-size="14.00">5</text>
</g>
<!-- 4&#45;&gt;5 -->
<g id="edge10" class="edge"><title>4&#45;&gt;5</title>
<path fill="none" stroke="black" d="M27,-545.766C27,-533.849 27,-518.038 27,-504.482"/>
<polygon fill="black" stroke="black" points="30.5001,-504.21 27,-494.21 23.5001,-504.21 30.5001,-504.21"/>
<text text-anchor="middle" x="32" y="-515.4" font-family="Times Roman,serif" font-size="14.00">h</text>
</g>
<!-- 6 -->
<g id="node7" class="node"><title>6</title>
<ellipse fill="none" stroke="#000000" cx="27" cy="-388" rx="18" ry="18"/>
<text text-anchor="middle" x="27" y="-383.4" font-family="Times Roman,serif" font-size="14.00">6</text>
</g>
<!-- 5&#45;&gt;6 -->
<g id="edge12" class="edge"><title>5&#45;&gt;6</title>
<path fill="none" stroke="black" d="M27,-457.766C27,-445.849 27,-430.038 27,-416.482"/>
<polygon fill="black" stroke="black" points="30.5001,-416.21 27,-406.21 23.5001,-416.21 30.5001,-416.21"/>
<text text-anchor="middle" x="31.5" y="-427.4" font-family="Times Roman,serif" font-size="14.00">_</text>
</g>
<!-- 7 -->
<g id="node8" class="node"><title>7</title>
<ellipse fill="none" stroke="#000000" cx="27" cy="-300" rx="18" ry="18"/>
<text text-anchor="middle" x="27" y="-295.4" font-family="Times Roman,serif" font-size="14.00">7</text>
</g>
<!-- 6&#45;&gt;7 -->
<g id="edge14" class="edge"><title>6&#45;&gt;7</title>
<path fill="none" stroke="black" d="M27,-369.766C27,-357.849 27,-342.038 27,-328.482"/>
<polygon fill="black" stroke="black" points="30.5001,-328.21 27,-318.21 23.5001,-328.21 30.5001,-328.21"/>
<text text-anchor="middle" x="32" y="-339.4" font-family="Times Roman,serif" font-size="14.00">d</text>
</g>
<!-- 8 -->
<g id="node9" class="node"><title>8</title>
<ellipse fill="none" stroke="#000000" cx="27" cy="-212" rx="18" ry="18"/>
<text text-anchor="middle" x="27" y="-207.4" font-family="Times Roman,serif" font-size="14.00">8</text>
</g>
<!-- 7&#45;&gt;8 -->
<g id="edge16" class="edge"><title>7&#45;&gt;8</title>
<path fill="none" stroke="black" d="M27,-281.766C27,-269.849 27,-254.038 27,-240.482"/>
<polygon fill="black" stroke="black" points="30.5001,-240.21 27,-230.21 23.5001,-240.21 30.5001,-240.21"/>
<text text-anchor="middle" x="31.5" y="-251.4" font-family="Times Roman,serif" font-size="14.00">a</text>
</g>
<!-- 9 -->
<g id="node10" class="node"><title>9</title>
<ellipse fill="none" stroke="#000000" cx="27" cy="-124" rx="18" ry="18"/>
<text text-anchor="middle" x="27" y="-119.4" font-family="Times Roman,serif" font-size="14.00">9</text>
</g>
<!-- 8&#45;&gt;9 -->
<g id="edge18" class="edge"><title>8&#45;&gt;9</title>
<path fill="none" stroke="black" d="M27,-193.766C27,-181.849 27,-166.038 27,-152.482"/>
<polygon fill="black" stroke="black" points="30.5001,-152.21 27,-142.21 23.5001,-152.21 30.5001,-152.21"/>
<text text-anchor="middle" x="30" y="-163.4" font-family="Times Roman,serif" font-size="14.00">t</text>
</g>
<!-- 10 -->
<g id="node11" class="node"><title>10</title>
<ellipse fill="none" stroke="#000000" cx="27" cy="-27" rx="22.8079" ry="22.8079"/>
<ellipse fill="none" stroke="#000000" cx="27" cy="-27" rx="26.8079" ry="26.8079"/>
<text text-anchor="middle" x="27" y="-22.4" font-family="Times Roman,serif" font-size="14.00">10</text>
</g>
<!-- 9&#45;&gt;10 -->
<g id="edge20" class="edge"><title>9&#45;&gt;10</title>
<path fill="none" stroke="black" d="M27,-105.755C27,-94.0965 27,-78.5544 27,-64.3586"/>
<polygon fill="black" stroke="black" points="30.5001,-64.3346 27,-54.3346 23.5001,-64.3346 30.5001,-64.3346"/>
<text text-anchor="middle" x="31.5" y="-75.4" font-family="Times Roman,serif" font-size="14.00">e</text>
</g>
</g>
</svg>
