<?xml version="1.0" encoding="UTF-8" standalone="no"?>
<!DOCTYPE svg PUBLIC "-//W3C//DTD SVG 1.1//EN"
 "http://www.w3.org/Graphics/SVG/1.1/DTD/svg11.dtd">
<!-- Generated by graphviz version 2.26.3 (20100126.1600)
 -->
<!-- Title: Finite_Automata_Graph Pages: 1 -->
<svg width="62pt" height="1040pt"
 viewBox="0.00 0.00 62.00 1040.00" xmlns="http://www.w3.org/2000/svg" xmlns:xlink="http://www.w3.org/1999/xlink">
<g id="graph1" class="graph" transform="scale(1 1) rotate(0) translate(4 1036)">
<title>Finite_Automata_Graph</title>
<polygon fill="white" stroke="white" points="-4,5 -4,-1036 59,-1036 59,5 -4,5"/>
<!-- 0 -->
<g id="node1" class="node"><title>0</title>
<ellipse fill="none" stroke="#000000" cx="27" cy="-1014" rx="18" ry="18"/>
<text text-anchor="middle" x="27" y="-1009.4" font-family="Times Roman,serif" font-size="14.00">0</text>
</g>
<!-- 1 -->
<g id="node2" class="node"><title>1</title>
<ellipse fill="none" stroke="#000000" cx="27" cy="-926" rx="18" ry="18"/>
<text text-anchor="middle" x="27" y="-921.4" font-family="Times Roman,serif" font-size="14.00">1</text>
</g>
<!-- 0&#45;&gt;1 -->
<g id="edge2" class="edge"><title>0&#45;&gt;1</title>
<path fill="none" stroke="black" d="M27,-995.766C27,-983.849 27,-968.038 27,-954.482"/>
<polygon fill="black" stroke="black" points="30.5001,-954.21 27,-944.21 23.5001,-954.21 30.5001,-954.21"/>
<text text-anchor="middle" x="32" y="-965.4" font-family="Times Roman,serif" font-size="14.00">b</text>
</g>
<!-- 2 -->
<g id="node3" class="node"><title>2</title>
<ellipse fill="none" stroke="#000000" cx="27" cy="-838" rx="18" ry="18"/>
<text text-anchor="middle" x="27" y="-833.4" font-family="Times Roman,serif" font-size="14.00">2</text>
</g>
<!-- 1&#45;&gt;2 -->
<g id="edge4" class="edge"><title>1&#45;&gt;2</title>
<path fill="none" stroke="black" d="M27,-907.766C27,-895.849 27,-880.038 27,-866.482"/>
<polygon fill="black" stroke="black" points="30.5001,-866.21 27,-856.21 23.5001,-866.21 30.5001,-866.21"/>
<text text-anchor="middle" x="29" y="-877.4" font-family="Times Roman,serif" font-size="14.00">i</text>
</g>
<!-- 3 -->
<g id="node4" class="node"><title>3</title>
<ellipse fill="none" stroke="#000000" cx="27" cy="-750" rx="18" ry="18"/>
<text text-anchor="middle" x="27" y="-745.4" font-family="Times Roman,serif" font-size="14.00">3</text>
</g>
<!-- 2&#45;&gt;3 -->
<g id="edge6" class="edge"><title>2&#45;&gt;3</title>
<path fill="none" stroke="black" d="M27,-819.766C27,-807.849 27,-792.038 27,-778.482"/>
<polygon fill="black" stroke="black" points="30.5001,-778.21 27,-768.21 23.5001,-778.21 30.5001,-778.21"/>
<text text-anchor="middle" x="30" y="-789.4" font-family="Times Roman,serif" font-size="14.00">r</text>
</g>
<!-- 4 -->
<g id="node5" class="node"><title>4</title>
<ellipse fill="none" stroke="#000000" cx="27" cy="-662" rx="18" ry="18"/>
<text text-anchor="middle" x="27" y="-657.4" font-family="Times Roman,serif" font-size="14.00">4</text>
</g>
<!-- 3&#45;&gt;4 -->
<g id="edge8" class="edge"><title>3&#45;&gt;4</title>
<path fill="none" stroke="black" d="M27,-731.766C27,-719.849 27,-704.038 27,-690.482"/>
<polygon fill="black" stroke="black" points="30.5001,-690.21 27,-680.21 23.5001,-690.21 30.5001,-690.21"/>
<text text-anchor="middle" x="30" y="-701.4" font-family="Times Roman,serif" font-size="14.00">t</text>
</g>
<!-- 5 -->
<g id="node6" class="node"><title>5</title>
<ellipse fill="none" stroke="#000000" cx="27" cy="-574" rx="18" ry="18"/>
<text text-anchor="middle" x="27" y="-569.4" font-family="Times Roman,serif" font-size="14.00">5</text>
</g>
<!-- 4&#45;&gt;5 -->
<g id="edge10" class="edge"><title>4&#45;&gt;5</title>
<path fill="none" stroke="black" d="M27,-643.766C27,-631.849 27,-616.038 27,-602.482"/>
<polygon fill="black" stroke="black" points="30.5001,-602.21 27,-592.21 23.5001,-602.21 30.5001,-602.21"/>
<text text-anchor="middle" x="32" y="-613.4" font-family="Times Roman,serif" font-size="14.00">h</text>
</g>
<!-- 6 -->
<g id="node7" class="node"><title>6</title>
<ellipse fill="none" stroke="#000000" cx="27" cy="-486" rx="18" ry="18"/>
<text text-anchor="middle" x="27" y="-481.4" font-family="Times Roman,serif" font-size="14.00">6</text>
</g>
<!-- 5&#45;&gt;6 -->
<g id="edge12" class="edge"><title>5&#45;&gt;6</title>
<path fill="none" stroke="black" d="M27,-555.766C27,-543.849 27,-528.038 27,-514.482"/>
<polygon fill="black" stroke="black" points="30.5001,-514.21 27,-504.21 23.5001,-514.21 30.5001,-514.21"/>
<text text-anchor="middle" x="31.5" y="-525.4" font-family="Times Roman,serif" font-size="14.00">_</text>
</g>
<!-- 7 -->
<g id="node8" class="node"><title>7</title>
<ellipse fill="none" stroke="#000000" cx="27" cy="-398" rx="18" ry="18"/>
<text text-anchor="middle" x="27" y="-393.4" font-family="Times Roman,serif" font-size="14.00">7</text>
</g>
<!-- 6&#45;&gt;7 -->
<g id="edge14" class="edge"><title>6&#45;&gt;7</title>
<path fill="none" stroke="black" d="M27,-467.766C27,-455.849 27,-440.038 27,-426.482"/>
<polygon fill="black" stroke="black" points="30.5001,-426.21 27,-416.21 23.5001,-426.21 30.5001,-426.21"/>
<text text-anchor="middle" x="32" y="-437.4" font-family="Times Roman,serif" font-size="14.00">d</text>
</g>
<!-- 8 -->
<g id="node9" class="node"><title>8</title>
<ellipse fill="none" stroke="#000000" cx="27" cy="-310" rx="18" ry="18"/>
<text text-anchor="middle" x="27" y="-305.4" font-family="Times Roman,serif" font-size="14.00">8</text>
</g>
<!-- 7&#45;&gt;8 -->
<g id="edge16" class="edge"><title>7&#45;&gt;8</title>
<path fill="none" stroke="black" d="M27,-379.766C27,-367.849 27,-352.038 27,-338.482"/>
<polygon fill="black" stroke="black" points="30.5001,-338.21 27,-328.21 23.5001,-338.21 30.5001,-338.21"/>
<text text-anchor="middle" x="31.5" y="-349.4" font-family="Times Roman,serif" font-size="14.00">a</text>
</g>
<!-- 9 -->
<g id="node10" class="node"><title>9</title>
<ellipse fill="none" stroke="#000000" cx="27" cy="-222" rx="18" ry="18"/>
<text text-anchor="middle" x="27" y="-217.4" font-family="Times Roman,serif" font-size="14.00">9</text>
</g>
<!-- 8&#45;&gt;9 -->
<g id="edge18" class="edge"><title>8&#45;&gt;9</title>
<path fill="none" stroke="black" d="M27,-291.766C27,-279.849 27,-264.038 27,-250.482"/>
<polygon fill="black" stroke="black" points="30.5001,-250.21 27,-240.21 23.5001,-250.21 30.5001,-250.21"/>
<text text-anchor="middle" x="30" y="-261.4" font-family="Times Roman,serif" font-size="14.00">t</text>
</g>
<!-- 10 -->
<g id="node11" class="node"><title>10</title>
<ellipse fill="none" stroke="#000000" cx="27" cy="-129" rx="22.8079" ry="22.8079"/>
<text text-anchor="middle" x="27" y="-124.4" font-family="Times Roman,serif" font-size="14.00">10</text>
</g>
<!-- 9&#45;&gt;10 -->
<g id="edge20" class="edge"><title>9&#45;&gt;10</title>
<path fill="none" stroke="black" d="M27,-203.626C27,-191.899 27,-176.35 27,-162.48"/>
<polygon fill="black" stroke="black" points="30.5001,-162.293 27,-152.293 23.5001,-162.293 30.5001,-162.293"/>
<text text-anchor="middle" x="31.5" y="-173.4" font-family="Times Roman,serif" font-size="14.00">e</text>
</g>
<!-- 11 -->
<g id="node12" class="node"><title>11</title>
<ellipse fill="none" stroke="#000000" cx="27" cy="-27" rx="22.8079" ry="22.8079"/>
<ellipse fill="none" stroke="#000000" cx="27" cy="-27" rx="26.8079" ry="26.8079"/>
<text text-anchor="middle" x="27" y="-22.4" font-family="Times Roman,serif" font-size="14.00">11</text>
</g>
<!-- 10&#45;&gt;11 -->
<g id="edge22" class="edge"><title>10&#45;&gt;11</title>
<path fill="none" stroke="black" d="M27,-105.855C27,-93.5829 27,-78.2074 27,-64.2999"/>
<polygon fill="black" stroke="black" points="30.5001,-64.0266 27,-54.0266 23.5001,-64.0267 30.5001,-64.0266"/>
<text text-anchor="middle" x="30" y="-75.4" font-family="Times Roman,serif" font-size="14.00">t</text>
</g>
</g>
</svg>
