<?xml version="1.0" encoding="UTF-8" standalone="no"?>
<!DOCTYPE svg PUBLIC "-//W3C//DTD SVG 1.1//EN"
 "http://www.w3.org/Graphics/SVG/1.1/DTD/svg11.dtd">
<!-- Generated by graphviz version 2.26.3 (20100126.1600)
 -->
<!-- Title: Finite_Automata_Graph Pages: 1 -->
<svg width="73pt" height="228pt"
 viewBox="0.00 0.00 73.00 228.00" xmlns="http://www.w3.org/2000/svg" xmlns:xlink="http://www.w3.org/1999/xlink">
<g id="graph1" class="graph" transform="scale(1 1) rotate(0) translate(4 224)">
<title>Finite_Automata_Graph</title>
<polygon fill="white" stroke="white" points="-4,5 -4,-224 70,-224 70,5 -4,5"/>
<!-- 0 -->
<g id="node1" class="node"><title>0</title>
<ellipse fill="none" stroke="#000000" cx="22" cy="-202" rx="18" ry="18"/>
<text text-anchor="middle" x="22" y="-197.4" font-family="Times Roman,serif" font-size="14.00">0</text>
</g>
<!-- 1 -->
<g id="node2" class="node"><title>1</title>
<ellipse fill="none" stroke="#000000" cx="22" cy="-22" rx="18" ry="18"/>
<ellipse fill="none" stroke="#000000" cx="22" cy="-22" rx="22" ry="22"/>
<text text-anchor="middle" x="22" y="-17.4" font-family="Times Roman,serif" font-size="14.00">1</text>
</g>
<!-- 0&#45;&gt;1 -->
<g id="edge2" class="edge"><title>0&#45;&gt;1</title>
<path fill="none" stroke="black" d="M18.7515,-184.237C16.3444,-170.132 13.2706,-149.878 12,-132 10.1309,-105.699 13.1545,-75.9179 16.3541,-53.9821"/>
<polygon fill="black" stroke="black" points="19.8448,-54.3117 17.9184,-43.8935 12.9274,-53.2391 19.8448,-54.3117"/>
<text text-anchor="middle" x="16" y="-109.4" font-family="Times Roman,serif" font-size="14.00">ε</text>
</g>
<!-- 2 -->
<g id="node3" class="node"><title>2</title>
<ellipse fill="none" stroke="#000000" cx="47" cy="-114" rx="18" ry="18"/>
<text text-anchor="middle" x="47" y="-109.4" font-family="Times Roman,serif" font-size="14.00">2</text>
</g>
<!-- 0&#45;&gt;2 -->
<g id="edge4" class="edge"><title>0&#45;&gt;2</title>
<path fill="none" stroke="black" d="M26.9392,-184.614C30.466,-172.2 35.2791,-155.258 39.3067,-141.08"/>
<polygon fill="black" stroke="black" points="42.705,-141.926 42.0711,-131.35 35.9714,-140.013 42.705,-141.926"/>
<text text-anchor="middle" x="39" y="-153.4" font-family="Times Roman,serif" font-size="14.00">]</text>
</g>
<!-- 2&#45;&gt;1 -->
<g id="edge6" class="edge"><title>2&#45;&gt;1</title>
<path fill="none" stroke="black" d="M42.1797,-96.2615C38.8686,-84.0766 34.3838,-67.5722 30.4829,-53.2171"/>
<polygon fill="black" stroke="black" points="33.7707,-51.9689 27.7708,-43.2366 27.0157,-53.8045 33.7707,-51.9689"/>
<text text-anchor="middle" x="39" y="-65.4" font-family="Times Roman,serif" font-size="14.00">]</text>
</g>
</g>
</svg>
