<?xml version="1.0" encoding="UTF-8" standalone="no"?>
<!DOCTYPE svg PUBLIC "-//W3C//DTD SVG 1.1//EN"
 "http://www.w3.org/Graphics/SVG/1.1/DTD/svg11.dtd">
<!-- Generated by graphviz version 2.26.3 (20100126.1600)
 -->
<!-- Title: Finite_Automata_Graph Pages: 1 -->
<svg width="178pt" height="620pt"
 viewBox="0.00 0.00 177.77 620.00" xmlns="http://www.w3.org/2000/svg" xmlns:xlink="http://www.w3.org/1999/xlink">
<g id="graph1" class="graph" transform="scale(1 1) rotate(0) translate(4 616)">
<title>Finite_Automata_Graph</title>
<polygon fill="white" stroke="white" points="-4,5 -4,-616 174.775,-616 174.775,5 -4,5"/>
<!-- 0 -->
<g id="node1" class="node"><title>0</title>
<ellipse fill="none" stroke="#000000" cx="68.7746" cy="-594" rx="18" ry="18"/>
<text text-anchor="middle" x="68.7746" y="-589.4" font-family="Times Roman,serif" font-size="14.00">0</text>
</g>
<!-- 1 -->
<g id="node2" class="node"><title>1</title>
<ellipse fill="none" stroke="#000000" cx="30.7746" cy="-506" rx="18" ry="18"/>
<text text-anchor="middle" x="30.7746" y="-501.4" font-family="Times Roman,serif" font-size="14.00">1</text>
</g>
<!-- 0&#45;&gt;1 -->
<g id="edge2" class="edge"><title>0&#45;&gt;1</title>
<path fill="none" stroke="black" d="M61.6271,-577.448C56.142,-564.746 48.4628,-546.962 42.138,-532.315"/>
<polygon fill="black" stroke="black" points="45.1969,-530.57 38.0192,-522.777 38.7704,-533.345 45.1969,-530.57"/>
<text text-anchor="middle" x="56.7746" y="-545.4" font-family="Times Roman,serif" font-size="14.00">ε</text>
</g>
<!-- 3 -->
<g id="node4" class="node"><title>3</title>
<ellipse fill="none" stroke="#000000" cx="98.7746" cy="-506" rx="18" ry="18"/>
<text text-anchor="middle" x="98.7746" y="-501.4" font-family="Times Roman,serif" font-size="14.00">3</text>
</g>
<!-- 0&#45;&gt;3 -->
<g id="edge4" class="edge"><title>0&#45;&gt;3</title>
<path fill="none" stroke="black" d="M74.7016,-576.614C78.9613,-564.119 84.7846,-547.037 89.6367,-532.804"/>
<polygon fill="black" stroke="black" points="93.0479,-533.645 92.9619,-523.05 86.4223,-531.386 93.0479,-533.645"/>
<text text-anchor="middle" x="89.7746" y="-545.4" font-family="Times Roman,serif" font-size="14.00">ε</text>
</g>
<!-- 6 -->
<g id="node7" class="node"><title>6</title>
<ellipse fill="none" stroke="#000000" cx="24.7746" cy="-418" rx="18" ry="18"/>
<text text-anchor="middle" x="24.7746" y="-413.4" font-family="Times Roman,serif" font-size="14.00">6</text>
</g>
<!-- 1&#45;&gt;6 -->
<g id="edge6" class="edge"><title>1&#45;&gt;6</title>
<path fill="none" stroke="black" d="M17.3247,-493.681C11.3319,-487.278 4.92437,-478.931 1.77456,-470 -1.77134,-459.946 1.76812,-449.12 7.04576,-439.963"/>
<polygon fill="black" stroke="black" points="10.082,-441.718 12.7048,-431.453 4.25309,-437.842 10.082,-441.718"/>
<text text-anchor="middle" x="5.77456" y="-457.4" font-family="Times Roman,serif" font-size="14.00">ε</text>
</g>
<!-- 1&#45;&gt;6 -->
<g id="edge8" class="edge"><title>1&#45;&gt;6</title>
<path fill="none" stroke="black" d="M29.5314,-487.766C28.7188,-475.849 27.6408,-460.038 26.7165,-446.482"/>
<polygon fill="black" stroke="black" points="30.1884,-445.949 26.0162,-436.21 23.2046,-446.425 30.1884,-445.949"/>
<text text-anchor="middle" x="50.2746" y="-457.4" font-family="Times Roman,serif" font-size="14.00">/[0&#45;2]/</text>
</g>
<!-- 2 -->
<g id="node3" class="node"><title>2</title>
<ellipse fill="none" stroke="#000000" cx="27.7746" cy="-266" rx="18" ry="18"/>
<text text-anchor="middle" x="27.7746" y="-261.4" font-family="Times Roman,serif" font-size="14.00">2</text>
</g>
<!-- 5 -->
<g id="node6" class="node"><title>5</title>
<ellipse fill="none" stroke="#000000" cx="53.7746" cy="-22" rx="18" ry="18"/>
<ellipse fill="none" stroke="#000000" cx="53.7746" cy="-22" rx="22" ry="22"/>
<text text-anchor="middle" x="53.7746" y="-17.4" font-family="Times Roman,serif" font-size="14.00">5</text>
</g>
<!-- 2&#45;&gt;5 -->
<g id="edge10" class="edge"><title>2&#45;&gt;5</title>
<path fill="none" stroke="black" d="M29.6864,-248.058C34.053,-207.079 44.8082,-106.146 50.3505,-54.1335"/>
<polygon fill="black" stroke="black" points="53.8386,-54.4304 51.418,-44.1158 46.878,-53.6886 53.8386,-54.4304"/>
<text text-anchor="middle" x="43.7746" y="-153.4" font-family="Times Roman,serif" font-size="14.00">ε</text>
</g>
<!-- 7 -->
<g id="node8" class="node"><title>7</title>
<ellipse fill="none" stroke="#000000" cx="92.7746" cy="-418" rx="18" ry="18"/>
<text text-anchor="middle" x="92.7746" y="-413.4" font-family="Times Roman,serif" font-size="14.00">7</text>
</g>
<!-- 3&#45;&gt;7 -->
<g id="edge12" class="edge"><title>3&#45;&gt;7</title>
<path fill="none" stroke="black" d="M97.5314,-487.766C96.7188,-475.849 95.6408,-460.038 94.7165,-446.482"/>
<polygon fill="black" stroke="black" points="98.1884,-445.949 94.0162,-436.21 91.2046,-446.425 98.1884,-445.949"/>
<text text-anchor="middle" x="99.7746" y="-457.4" font-family="Times Roman,serif" font-size="14.00">ε</text>
</g>
<!-- 9 -->
<g id="node10" class="node"><title>9</title>
<ellipse fill="none" stroke="#000000" cx="146.775" cy="-418" rx="18" ry="18"/>
<text text-anchor="middle" x="146.775" y="-413.4" font-family="Times Roman,serif" font-size="14.00">9</text>
</g>
<!-- 3&#45;&gt;9 -->
<g id="edge14" class="edge"><title>3&#45;&gt;9</title>
<path fill="none" stroke="black" d="M107.579,-489.859C114.751,-476.71 124.999,-457.922 133.217,-442.855"/>
<polygon fill="black" stroke="black" points="136.311,-444.493 138.026,-434.038 130.165,-441.141 136.311,-444.493"/>
<text text-anchor="middle" x="130.775" y="-457.4" font-family="Times Roman,serif" font-size="14.00">ε</text>
</g>
<!-- 4 -->
<g id="node5" class="node"><title>4</title>
<ellipse fill="none" stroke="#000000" cx="82.7746" cy="-114" rx="18" ry="18"/>
<text text-anchor="middle" x="82.7746" y="-109.4" font-family="Times Roman,serif" font-size="14.00">4</text>
</g>
<!-- 4&#45;&gt;5 -->
<g id="edge16" class="edge"><title>4&#45;&gt;5</title>
<path fill="none" stroke="black" d="M77.3199,-96.6955C73.4272,-84.3464 68.0865,-67.4033 63.4755,-52.7753"/>
<polygon fill="black" stroke="black" points="66.7711,-51.5882 60.4266,-43.1031 60.0949,-53.6927 66.7711,-51.5882"/>
<text text-anchor="middle" x="74.7746" y="-65.4" font-family="Times Roman,serif" font-size="14.00">ε</text>
</g>
<!-- 6&#45;&gt;2 -->
<g id="edge18" class="edge"><title>6&#45;&gt;2</title>
<path fill="none" stroke="black" d="M25.1305,-399.967C25.647,-373.798 26.609,-325.056 27.2192,-294.137"/>
<polygon fill="black" stroke="black" points="30.721,-294.077 27.4191,-284.01 23.7224,-293.939 30.721,-294.077"/>
<text text-anchor="middle" x="47.2746" y="-369.4" font-family="Times Roman,serif" font-size="14.00">/[0&#45;9]/</text>
</g>
<!-- 11 -->
<g id="node12" class="node"><title>11</title>
<ellipse fill="none" stroke="#000000" cx="82.7746" cy="-325" rx="22.8079" ry="22.8079"/>
<text text-anchor="middle" x="82.7746" y="-320.4" font-family="Times Roman,serif" font-size="14.00">11</text>
</g>
<!-- 7&#45;&gt;11 -->
<g id="edge20" class="edge"><title>7&#45;&gt;11</title>
<path fill="none" stroke="black" d="M90.8465,-400.069C89.5801,-388.292 87.8845,-372.523 86.3743,-358.478"/>
<polygon fill="black" stroke="black" points="89.8149,-357.737 85.2658,-348.168 82.855,-358.485 89.8149,-357.737"/>
<text text-anchor="middle" x="92.7746" y="-369.4" font-family="Times Roman,serif" font-size="14.00">3</text>
</g>
<!-- 8 -->
<g id="node9" class="node"><title>8</title>
<ellipse fill="none" stroke="#000000" cx="82.7746" cy="-207" rx="18" ry="18"/>
<text text-anchor="middle" x="82.7746" y="-202.4" font-family="Times Roman,serif" font-size="14.00">8</text>
</g>
<!-- 8&#45;&gt;4 -->
<g id="edge22" class="edge"><title>8&#45;&gt;4</title>
<path fill="none" stroke="black" d="M82.7746,-188.626C82.7746,-175.421 82.7746,-157.369 82.7746,-142.327"/>
<polygon fill="black" stroke="black" points="86.2747,-142.019 82.7746,-132.019 79.2747,-142.019 86.2747,-142.019"/>
<text text-anchor="middle" x="86.7746" y="-153.4" font-family="Times Roman,serif" font-size="14.00">ε</text>
</g>
<!-- 12 -->
<g id="node13" class="node"><title>12</title>
<ellipse fill="none" stroke="#000000" cx="146.775" cy="-325" rx="22.8079" ry="22.8079"/>
<text text-anchor="middle" x="146.775" y="-320.4" font-family="Times Roman,serif" font-size="14.00">12</text>
</g>
<!-- 9&#45;&gt;12 -->
<g id="edge24" class="edge"><title>9&#45;&gt;12</title>
<path fill="none" stroke="black" d="M146.775,-399.626C146.775,-387.899 146.775,-372.35 146.775,-358.48"/>
<polygon fill="black" stroke="black" points="150.275,-358.293 146.775,-348.293 143.275,-358.293 150.275,-358.293"/>
<text text-anchor="middle" x="151.775" y="-369.4" font-family="Times Roman,serif" font-size="14.00">3</text>
</g>
<!-- 10 -->
<g id="node11" class="node"><title>10</title>
<ellipse fill="none" stroke="#000000" cx="142.775" cy="-207" rx="22.8079" ry="22.8079"/>
<text text-anchor="middle" x="142.775" y="-202.4" font-family="Times Roman,serif" font-size="14.00">10</text>
</g>
<!-- 10&#45;&gt;4 -->
<g id="edge26" class="edge"><title>10&#45;&gt;4</title>
<path fill="none" stroke="black" d="M130.05,-187.277C120.733,-172.836 108.044,-153.168 98.1579,-137.844"/>
<polygon fill="black" stroke="black" points="101.07,-135.902 92.7076,-129.396 95.1879,-139.697 101.07,-135.902"/>
<text text-anchor="middle" x="117.775" y="-153.4" font-family="Times Roman,serif" font-size="14.00">ε</text>
</g>
<!-- 11&#45;&gt;8 -->
<g id="edge28" class="edge"><title>11&#45;&gt;8</title>
<path fill="none" stroke="black" d="M82.7746,-301.968C82.7746,-282.979 82.7746,-255.953 82.7746,-235.583"/>
<polygon fill="black" stroke="black" points="86.2747,-235.331 82.7746,-225.331 79.2747,-235.331 86.2747,-235.331"/>
<text text-anchor="middle" x="87.7746" y="-261.4" font-family="Times Roman,serif" font-size="14.00">0</text>
</g>
<!-- 12&#45;&gt;10 -->
<g id="edge30" class="edge"><title>12&#45;&gt;10</title>
<path fill="none" stroke="black" d="M145.994,-301.968C145.4,-284.458 144.575,-260.112 143.909,-240.454"/>
<polygon fill="black" stroke="black" points="147.404,-240.253 143.567,-230.377 140.408,-240.49 147.404,-240.253"/>
<text text-anchor="middle" x="149.775" y="-261.4" font-family="Times Roman,serif" font-size="14.00">1</text>
</g>
</g>
</svg>
