<?xml version="1.0" encoding="UTF-8" standalone="no"?>
<!DOCTYPE svg PUBLIC "-//W3C//DTD SVG 1.1//EN"
 "http://www.w3.org/Graphics/SVG/1.1/DTD/svg11.dtd">
<!-- Generated by graphviz version 2.26.3 (20100126.1600)
 -->
<!-- Title: Finite_Automata_Graph Pages: 1 -->
<svg width="227pt" height="228pt"
 viewBox="0.00 0.00 227.00 228.00" xmlns="http://www.w3.org/2000/svg" xmlns:xlink="http://www.w3.org/1999/xlink">
<g id="graph1" class="graph" transform="scale(1 1) rotate(0) translate(4 224)">
<title>Finite_Automata_Graph</title>
<polygon fill="white" stroke="white" points="-4,5 -4,-224 224,-224 224,5 -4,5"/>
<!-- 0 -->
<g id="node1" class="node"><title>0</title>
<ellipse fill="none" stroke="#000000" cx="78" cy="-202" rx="18" ry="18"/>
<text text-anchor="middle" x="78" y="-197.4" font-family="Times Roman,serif" font-size="14.00">0</text>
</g>
<!-- 1 -->
<g id="node2" class="node"><title>1</title>
<ellipse fill="none" stroke="#000000" cx="18" cy="-114" rx="18" ry="18"/>
<text text-anchor="middle" x="18" y="-109.4" font-family="Times Roman,serif" font-size="14.00">1</text>
</g>
<!-- 0&#45;&gt;1 -->
<g id="edge2" class="edge"><title>0&#45;&gt;1</title>
<path fill="none" stroke="black" d="M60.6392,-196.624C46.6762,-191.287 27.9602,-181.61 19,-166 14.9369,-158.921 13.6184,-150.359 13.6129,-142.242"/>
<polygon fill="black" stroke="black" points="17.1227,-142.188 14.2415,-131.992 10.1359,-141.759 17.1227,-142.188"/>
<text text-anchor="middle" x="41.5" y="-153.4" font-family="Times Roman,serif" font-size="14.00">/[0&#45;2]/</text>
</g>
<!-- 2 -->
<g id="node3" class="node"><title>2</title>
<ellipse fill="none" stroke="#000000" cx="33" cy="-22" rx="18" ry="18"/>
<ellipse fill="none" stroke="#000000" cx="33" cy="-22" rx="22" ry="22"/>
<text text-anchor="middle" x="33" y="-17.4" font-family="Times Roman,serif" font-size="14.00">2</text>
</g>
<!-- 0&#45;&gt;2 -->
<g id="edge4" class="edge"><title>0&#45;&gt;2</title>
<path fill="none" stroke="black" d="M79.2952,-184.02C80.5971,-156.633 80.4688,-103.294 64,-62 61.7482,-56.3538 58.4492,-50.8378 54.8336,-45.7941"/>
<polygon fill="black" stroke="black" points="57.5017,-43.5245 48.5788,-37.8121 51.9919,-47.8421 57.5017,-43.5245"/>
<text text-anchor="middle" x="100.5" y="-109.4" font-family="Times Roman,serif" font-size="14.00">/[0&#45;9]/</text>
</g>
<!-- 3 -->
<g id="node4" class="node"><title>3</title>
<ellipse fill="none" stroke="#000000" cx="159" cy="-114" rx="18" ry="18"/>
<text text-anchor="middle" x="159" y="-109.4" font-family="Times Roman,serif" font-size="14.00">3</text>
</g>
<!-- 0&#45;&gt;3 -->
<g id="edge6" class="edge"><title>0&#45;&gt;3</title>
<path fill="none" stroke="black" d="M90.3022,-188.635C103.386,-174.421 124.263,-151.739 139.572,-135.106"/>
<polygon fill="black" stroke="black" points="142.385,-137.219 146.582,-127.491 137.234,-132.478 142.385,-137.219"/>
<text text-anchor="middle" x="130" y="-153.4" font-family="Times Roman,serif" font-size="14.00">3</text>
</g>
<!-- 1&#45;&gt;2 -->
<g id="edge8" class="edge"><title>1&#45;&gt;2</title>
<path fill="none" stroke="black" d="M16.9426,-95.571C16.7215,-85.5643 17.0181,-73.0197 19,-62 19.5861,-58.7414 20.3987,-55.3924 21.3401,-52.0856"/>
<polygon fill="black" stroke="black" points="24.7177,-53.0153 24.4529,-42.4237 18.0549,-50.8686 24.7177,-53.0153"/>
<text text-anchor="middle" x="41.5" y="-65.4" font-family="Times Roman,serif" font-size="14.00">/[0&#45;9]/</text>
</g>
<!-- 4 -->
<g id="node5" class="node"><title>4</title>
<ellipse fill="none" stroke="#000000" cx="135" cy="-22" rx="18" ry="18"/>
<ellipse fill="none" stroke="#000000" cx="135" cy="-22" rx="22" ry="22"/>
<text text-anchor="middle" x="135" y="-17.4" font-family="Times Roman,serif" font-size="14.00">4</text>
</g>
<!-- 3&#45;&gt;4 -->
<g id="edge10" class="edge"><title>3&#45;&gt;4</title>
<path fill="none" stroke="black" d="M154.373,-96.2615C151.216,-84.1606 146.948,-67.7997 143.221,-53.5144"/>
<polygon fill="black" stroke="black" points="146.538,-52.3626 140.627,-43.5699 139.765,-54.1296 146.538,-52.3626"/>
<text text-anchor="middle" x="154" y="-65.4" font-family="Times Roman,serif" font-size="14.00">0</text>
</g>
<!-- 5 -->
<g id="node6" class="node"><title>5</title>
<ellipse fill="none" stroke="#000000" cx="197" cy="-22" rx="18" ry="18"/>
<ellipse fill="none" stroke="#000000" cx="197" cy="-22" rx="22" ry="22"/>
<text text-anchor="middle" x="197" y="-17.4" font-family="Times Roman,serif" font-size="14.00">5</text>
</g>
<!-- 3&#45;&gt;5 -->
<g id="edge12" class="edge"><title>3&#45;&gt;5</title>
<path fill="none" stroke="black" d="M165.97,-97.1258C171.172,-84.5301 178.419,-66.9849 184.601,-52.0177"/>
<polygon fill="black" stroke="black" points="187.895,-53.2111 188.478,-42.6323 181.425,-50.5387 187.895,-53.2111"/>
<text text-anchor="middle" x="185" y="-65.4" font-family="Times Roman,serif" font-size="14.00">1</text>
</g>
</g>
</svg>
