<?xml version="1.0" encoding="UTF-8" standalone="no"?>
<!DOCTYPE svg PUBLIC "-//W3C//DTD SVG 1.1//EN"
 "http://www.w3.org/Graphics/SVG/1.1/DTD/svg11.dtd">
<!-- Generated by graphviz version 2.26.3 (20100126.1600)
 -->
<!-- Title: Finite_Automata_Graph Pages: 1 -->
<svg width="124pt" height="580pt"
 viewBox="0.00 0.00 124.02 580.00" xmlns="http://www.w3.org/2000/svg" xmlns:xlink="http://www.w3.org/1999/xlink">
<g id="graph1" class="graph" transform="scale(1 1) rotate(0) translate(4 576)">
<title>Finite_Automata_Graph</title>
<polygon fill="white" stroke="white" points="-4,5 -4,-576 121.025,-576 121.025,5 -4,5"/>
<!-- 0 -->
<g id="node1" class="node"><title>0</title>
<ellipse fill="none" stroke="#000000" cx="96.0247" cy="-554" rx="18" ry="18"/>
<text text-anchor="middle" x="96.0247" y="-549.4" font-family="Times Roman,serif" font-size="14.00">0</text>
</g>
<!-- 1 -->
<g id="node2" class="node"><title>1</title>
<ellipse fill="none" stroke="#000000" cx="96.0247" cy="-466" rx="18" ry="18"/>
<text text-anchor="middle" x="96.0247" y="-461.4" font-family="Times Roman,serif" font-size="14.00">1</text>
</g>
<!-- 0&#45;&gt;1 -->
<g id="edge2" class="edge"><title>0&#45;&gt;1</title>
<path fill="none" stroke="black" d="M96.0247,-535.766C96.0247,-523.849 96.0247,-508.038 96.0247,-494.482"/>
<polygon fill="black" stroke="black" points="99.5248,-494.21 96.0247,-484.21 92.5248,-494.21 99.5248,-494.21"/>
<text text-anchor="middle" x="100.025" y="-505.4" font-family="Times Roman,serif" font-size="14.00">ε</text>
</g>
<!-- 2 -->
<g id="node3" class="node"><title>2</title>
<ellipse fill="none" stroke="#000000" cx="96.0247" cy="-378" rx="18" ry="18"/>
<text text-anchor="middle" x="96.0247" y="-373.4" font-family="Times Roman,serif" font-size="14.00">2</text>
</g>
<!-- 1&#45;&gt;2 -->
<g id="edge4" class="edge"><title>1&#45;&gt;2</title>
<path fill="none" stroke="black" d="M81.7914,-454.972C74.6976,-448.551 66.836,-439.798 63.0247,-430 58.3145,-417.891 65.5112,-405.561 74.3723,-395.949"/>
<polygon fill="black" stroke="black" points="76.9129,-398.36 81.6399,-388.878 72.0317,-393.343 76.9129,-398.36"/>
<text text-anchor="middle" x="85.5247" y="-417.4" font-family="Times Roman,serif" font-size="14.00">/[1&#45;9]/</text>
</g>
<!-- 2&#45;&gt;1 -->
<g id="edge6" class="edge"><title>2&#45;&gt;1</title>
<path fill="none" stroke="black" d="M103.286,-394.75C106.829,-404.887 109.954,-418.111 108.025,-430 107.524,-433.087 106.796,-436.267 105.943,-439.399"/>
<polygon fill="black" stroke="black" points="102.563,-438.481 102.914,-449.071 109.243,-440.574 102.563,-438.481"/>
<text text-anchor="middle" x="112.025" y="-417.4" font-family="Times Roman,serif" font-size="14.00">ε</text>
</g>
<!-- 3 -->
<g id="node4" class="node"><title>3</title>
<ellipse fill="none" stroke="#000000" cx="96.0247" cy="-290" rx="18" ry="18"/>
<text text-anchor="middle" x="96.0247" y="-285.4" font-family="Times Roman,serif" font-size="14.00">3</text>
</g>
<!-- 2&#45;&gt;3 -->
<g id="edge8" class="edge"><title>2&#45;&gt;3</title>
<path fill="none" stroke="black" d="M96.0247,-359.766C96.0247,-347.849 96.0247,-332.038 96.0247,-318.482"/>
<polygon fill="black" stroke="black" points="99.5248,-318.21 96.0247,-308.21 92.5248,-318.21 99.5248,-318.21"/>
<text text-anchor="middle" x="100.025" y="-329.4" font-family="Times Roman,serif" font-size="14.00">ε</text>
</g>
<!-- 4 -->
<g id="node5" class="node"><title>4</title>
<ellipse fill="none" stroke="#000000" cx="62.0247" cy="-202" rx="18" ry="18"/>
<text text-anchor="middle" x="62.0247" y="-197.4" font-family="Times Roman,serif" font-size="14.00">4</text>
</g>
<!-- 3&#45;&gt;4 -->
<g id="edge10" class="edge"><title>3&#45;&gt;4</title>
<path fill="none" stroke="black" d="M89.4691,-273.033C84.5774,-260.372 77.8018,-242.835 72.2071,-228.354"/>
<polygon fill="black" stroke="black" points="75.4289,-226.982 68.5601,-218.915 68.8993,-229.505 75.4289,-226.982"/>
<text text-anchor="middle" x="87.0247" y="-241.4" font-family="Times Roman,serif" font-size="14.00">ε</text>
</g>
<!-- 6 -->
<g id="node7" class="node"><title>6</title>
<ellipse fill="none" stroke="#000000" cx="91.0247" cy="-22" rx="18" ry="18"/>
<ellipse fill="none" stroke="#000000" cx="91.0247" cy="-22" rx="22" ry="22"/>
<text text-anchor="middle" x="91.0247" y="-17.4" font-family="Times Roman,serif" font-size="14.00">6</text>
</g>
<!-- 3&#45;&gt;6 -->
<g id="edge12" class="edge"><title>3&#45;&gt;6</title>
<path fill="none" stroke="black" d="M95.6888,-272C94.8578,-227.456 92.6958,-111.575 91.6328,-54.5969"/>
<polygon fill="black" stroke="black" points="95.1277,-54.2821 91.4416,-44.3491 88.1289,-54.4127 95.1277,-54.2821"/>
<text text-anchor="middle" x="98.0247" y="-153.4" font-family="Times Roman,serif" font-size="14.00">ε</text>
</g>
<!-- 5 -->
<g id="node6" class="node"><title>5</title>
<ellipse fill="none" stroke="#000000" cx="62.0247" cy="-114" rx="18" ry="18"/>
<text text-anchor="middle" x="62.0247" y="-109.4" font-family="Times Roman,serif" font-size="14.00">5</text>
</g>
<!-- 4&#45;&gt;5 -->
<g id="edge14" class="edge"><title>4&#45;&gt;5</title>
<path fill="none" stroke="black" d="M44.5864,-196.668C30.5762,-191.358 11.8344,-181.696 3.02467,-166 -7.12908,-147.91 15.5525,-132.976 35.6701,-123.824"/>
<polygon fill="black" stroke="black" points="37.0488,-127.041 44.8947,-119.921 34.3213,-120.594 37.0488,-127.041"/>
<text text-anchor="middle" x="25.5247" y="-153.4" font-family="Times Roman,serif" font-size="14.00">/[0&#45;9]/</text>
</g>
<!-- 5&#45;&gt;4 -->
<g id="edge16" class="edge"><title>5&#45;&gt;4</title>
<path fill="none" stroke="black" d="M62.0247,-132.21C62.0247,-144.122 62.0247,-159.932 62.0247,-173.492"/>
<polygon fill="black" stroke="black" points="58.5248,-173.766 62.0247,-183.766 65.5248,-173.766 58.5248,-173.766"/>
<text text-anchor="middle" x="66.0247" y="-153.4" font-family="Times Roman,serif" font-size="14.00">ε</text>
</g>
<!-- 5&#45;&gt;6 -->
<g id="edge18" class="edge"><title>5&#45;&gt;6</title>
<path fill="none" stroke="black" d="M67.4793,-96.6955C71.372,-84.3464 76.7128,-67.4033 81.3238,-52.7753"/>
<polygon fill="black" stroke="black" points="84.7043,-53.6927 84.3726,-43.1031 78.0281,-51.5882 84.7043,-53.6927"/>
<text text-anchor="middle" x="83.0247" y="-65.4" font-family="Times Roman,serif" font-size="14.00">ε</text>
</g>
</g>
</svg>
