<?xml version="1.0" encoding="UTF-8" standalone="no"?>
<!DOCTYPE svg PUBLIC "-//W3C//DTD SVG 1.1//EN"
 "http://www.w3.org/Graphics/SVG/1.1/DTD/svg11.dtd">
<!-- Generated by graphviz version 2.26.3 (20100126.1600)
 -->
<!-- Title: Finite_Automata_Graph Pages: 1 -->
<svg width="854pt" height="972pt"
 viewBox="0.00 0.00 854.00 972.00" xmlns="http://www.w3.org/2000/svg" xmlns:xlink="http://www.w3.org/1999/xlink">
<g id="graph1" class="graph" transform="scale(1 1) rotate(0) translate(4 968)">
<title>Finite_Automata_Graph</title>
<polygon fill="white" stroke="white" points="-4,5 -4,-968 851,-968 851,5 -4,5"/>
<!-- 0 -->
<g id="node1" class="node"><title>0</title>
<ellipse fill="none" stroke="#000000" cx="560" cy="-946" rx="18" ry="18"/>
<text text-anchor="middle" x="560" y="-941.4" font-family="Times Roman,serif" font-size="14.00">0</text>
</g>
<!-- 1 -->
<g id="node2" class="node"><title>1</title>
<ellipse fill="none" stroke="#000000" cx="152" cy="-858" rx="18" ry="18"/>
<text text-anchor="middle" x="152" y="-853.4" font-family="Times Roman,serif" font-size="14.00">1</text>
</g>
<!-- 0&#45;&gt;1 -->
<g id="edge2" class="edge"><title>0&#45;&gt;1</title>
<path fill="none" stroke="black" d="M542.206,-942.162C478.046,-928.324 258.245,-880.916 179.963,-864.031"/>
<polygon fill="black" stroke="black" points="180.4,-860.545 169.887,-861.858 178.925,-867.388 180.4,-860.545"/>
<text text-anchor="middle" x="396.5" y="-897.4" font-family="Times Roman,serif" font-size="14.00">J</text>
</g>
<!-- 2 -->
<g id="node3" class="node"><title>2</title>
<ellipse fill="none" stroke="#000000" cx="346" cy="-858" rx="18" ry="18"/>
<text text-anchor="middle" x="346" y="-853.4" font-family="Times Roman,serif" font-size="14.00">2</text>
</g>
<!-- 0&#45;&gt;2 -->
<g id="edge4" class="edge"><title>0&#45;&gt;2</title>
<path fill="none" stroke="black" d="M543.123,-939.114C525.404,-931.88 496.734,-920.163 472,-910 437.41,-895.787 397.513,-879.307 372.041,-868.775"/>
<polygon fill="black" stroke="black" points="373.285,-865.501 362.706,-864.914 370.609,-871.97 373.285,-865.501"/>
<text text-anchor="middle" x="476.5" y="-897.4" font-family="Times Roman,serif" font-size="14.00">F</text>
</g>
<!-- 3 -->
<g id="node4" class="node"><title>3</title>
<ellipse fill="none" stroke="#000000" cx="432" cy="-858" rx="18" ry="18"/>
<text text-anchor="middle" x="432" y="-853.4" font-family="Times Roman,serif" font-size="14.00">3</text>
</g>
<!-- 0&#45;&gt;3 -->
<g id="edge6" class="edge"><title>0&#45;&gt;3</title>
<path fill="none" stroke="black" d="M545.066,-935.733C523.003,-920.565 481.498,-892.03 455.379,-874.073"/>
<polygon fill="black" stroke="black" points="457.062,-870.983 446.839,-868.202 453.096,-876.751 457.062,-870.983"/>
<text text-anchor="middle" x="514.5" y="-897.4" font-family="Times Roman,serif" font-size="14.00">M</text>
</g>
<!-- 4 -->
<g id="node5" class="node"><title>4</title>
<ellipse fill="none" stroke="#000000" cx="531" cy="-858" rx="18" ry="18"/>
<text text-anchor="middle" x="531" y="-853.4" font-family="Times Roman,serif" font-size="14.00">4</text>
</g>
<!-- 0&#45;&gt;4 -->
<g id="edge8" class="edge"><title>0&#45;&gt;4</title>
<path fill="none" stroke="black" d="M554.271,-928.614C550.179,-916.2 544.596,-899.258 539.924,-885.08"/>
<polygon fill="black" stroke="black" points="543.172,-883.752 536.718,-875.35 536.523,-885.943 543.172,-883.752"/>
<text text-anchor="middle" x="554.5" y="-897.4" font-family="Times Roman,serif" font-size="14.00">A</text>
</g>
<!-- 5 -->
<g id="node6" class="node"><title>5</title>
<ellipse fill="none" stroke="#000000" cx="589" cy="-858" rx="18" ry="18"/>
<text text-anchor="middle" x="589" y="-853.4" font-family="Times Roman,serif" font-size="14.00">5</text>
</g>
<!-- 0&#45;&gt;5 -->
<g id="edge10" class="edge"><title>0&#45;&gt;5</title>
<path fill="none" stroke="black" d="M565.729,-928.614C569.821,-916.2 575.404,-899.258 580.076,-885.08"/>
<polygon fill="black" stroke="black" points="583.477,-885.943 583.282,-875.35 576.828,-883.752 583.477,-885.943"/>
<text text-anchor="middle" x="583" y="-897.4" font-family="Times Roman,serif" font-size="14.00">S</text>
</g>
<!-- 6 -->
<g id="node7" class="node"><title>6</title>
<ellipse fill="none" stroke="#000000" cx="645" cy="-858" rx="18" ry="18"/>
<text text-anchor="middle" x="645" y="-853.4" font-family="Times Roman,serif" font-size="14.00">6</text>
</g>
<!-- 0&#45;&gt;6 -->
<g id="edge12" class="edge"><title>0&#45;&gt;6</title>
<path fill="none" stroke="black" d="M572.542,-933.015C586.478,-918.587 609.159,-895.106 625.434,-878.257"/>
<polygon fill="black" stroke="black" points="627.976,-880.662 632.407,-871.038 622.942,-875.799 627.976,-880.662"/>
<text text-anchor="middle" x="617" y="-897.4" font-family="Times Roman,serif" font-size="14.00">O</text>
</g>
<!-- 7 -->
<g id="node8" class="node"><title>7</title>
<ellipse fill="none" stroke="#000000" cx="700" cy="-858" rx="18" ry="18"/>
<text text-anchor="middle" x="700" y="-853.4" font-family="Times Roman,serif" font-size="14.00">7</text>
</g>
<!-- 0&#45;&gt;7 -->
<g id="edge14" class="edge"><title>0&#45;&gt;7</title>
<path fill="none" stroke="black" d="M576.295,-937.972C590.065,-931.017 610.176,-920.454 627,-910 644.402,-899.186 663.215,-885.74 677.384,-875.23"/>
<polygon fill="black" stroke="black" points="679.644,-877.91 685.552,-869.115 675.449,-872.306 679.644,-877.91"/>
<text text-anchor="middle" x="655.5" y="-897.4" font-family="Times Roman,serif" font-size="14.00">N</text>
</g>
<!-- 8 -->
<g id="node9" class="node"><title>8</title>
<ellipse fill="none" stroke="#000000" cx="764" cy="-858" rx="18" ry="18"/>
<text text-anchor="middle" x="764" y="-853.4" font-family="Times Roman,serif" font-size="14.00">8</text>
</g>
<!-- 0&#45;&gt;8 -->
<g id="edge16" class="edge"><title>0&#45;&gt;8</title>
<path fill="none" stroke="black" d="M577.402,-940.932C598.484,-934.588 634.915,-922.968 665,-910 691.046,-898.773 719.606,-883.425 739.328,-872.316"/>
<polygon fill="black" stroke="black" points="741.29,-875.227 748.25,-867.239 737.828,-869.143 741.29,-875.227"/>
<text text-anchor="middle" x="703.5" y="-897.4" font-family="Times Roman,serif" font-size="14.00">D</text>
</g>
<!-- 9 -->
<g id="node10" class="node"><title>9</title>
<ellipse fill="none" stroke="#000000" cx="75" cy="-765" rx="18" ry="18"/>
<text text-anchor="middle" x="75" y="-760.4" font-family="Times Roman,serif" font-size="14.00">9</text>
</g>
<!-- 1&#45;&gt;9 -->
<g id="edge18" class="edge"><title>1&#45;&gt;9</title>
<path fill="none" stroke="black" d="M140.305,-843.875C127.796,-828.766 107.79,-804.604 93.2149,-787"/>
<polygon fill="black" stroke="black" points="95.6257,-784.423 86.5524,-778.953 90.2339,-788.888 95.6257,-784.423"/>
<text text-anchor="middle" x="125.5" y="-809.4" font-family="Times Roman,serif" font-size="14.00">a</text>
</g>
<!-- 10 -->
<g id="node11" class="node"><title>10</title>
<ellipse fill="none" stroke="#000000" cx="152" cy="-765" rx="22.8079" ry="22.8079"/>
<text text-anchor="middle" x="152" y="-760.4" font-family="Times Roman,serif" font-size="14.00">10</text>
</g>
<!-- 1&#45;&gt;10 -->
<g id="edge20" class="edge"><title>1&#45;&gt;10</title>
<path fill="none" stroke="black" d="M152,-839.626C152,-827.899 152,-812.35 152,-798.48"/>
<polygon fill="black" stroke="black" points="155.5,-798.293 152,-788.293 148.5,-798.293 155.5,-798.293"/>
<text text-anchor="middle" x="157" y="-809.4" font-family="Times Roman,serif" font-size="14.00">u</text>
</g>
<!-- 11 -->
<g id="node12" class="node"><title>11</title>
<ellipse fill="none" stroke="#000000" cx="313" cy="-765" rx="22.8079" ry="22.8079"/>
<text text-anchor="middle" x="313" y="-760.4" font-family="Times Roman,serif" font-size="14.00">11</text>
</g>
<!-- 2&#45;&gt;11 -->
<g id="edge22" class="edge"><title>2&#45;&gt;11</title>
<path fill="none" stroke="black" d="M339.947,-840.942C335.563,-828.587 329.507,-811.52 324.246,-796.694"/>
<polygon fill="black" stroke="black" points="327.404,-795.128 320.762,-786.874 320.807,-797.469 327.404,-795.128"/>
<text text-anchor="middle" x="337.5" y="-809.4" font-family="Times Roman,serif" font-size="14.00">e</text>
</g>
<!-- 12 -->
<g id="node13" class="node"><title>12</title>
<ellipse fill="none" stroke="#000000" cx="387" cy="-765" rx="22.8079" ry="22.8079"/>
<text text-anchor="middle" x="387" y="-760.4" font-family="Times Roman,serif" font-size="14.00">12</text>
</g>
<!-- 3&#45;&gt;12 -->
<g id="edge24" class="edge"><title>3&#45;&gt;12</title>
<path fill="none" stroke="black" d="M423.955,-841.373C417.716,-828.48 408.906,-810.273 401.453,-794.869"/>
<polygon fill="black" stroke="black" points="404.529,-793.191 397.023,-785.714 398.228,-796.24 404.529,-793.191"/>
<text text-anchor="middle" x="418.5" y="-809.4" font-family="Times Roman,serif" font-size="14.00">a</text>
</g>
<!-- 13 -->
<g id="node14" class="node"><title>13</title>
<ellipse fill="none" stroke="#000000" cx="465" cy="-765" rx="22.8079" ry="22.8079"/>
<text text-anchor="middle" x="465" y="-760.4" font-family="Times Roman,serif" font-size="14.00">13</text>
</g>
<!-- 4&#45;&gt;13 -->
<g id="edge26" class="edge"><title>4&#45;&gt;13</title>
<path fill="none" stroke="black" d="M520.396,-843.058C510.653,-829.329 495.977,-808.65 484.179,-792.025"/>
<polygon fill="black" stroke="black" points="486.954,-789.888 478.313,-783.759 481.246,-793.939 486.954,-789.888"/>
<text text-anchor="middle" x="509" y="-809.4" font-family="Times Roman,serif" font-size="14.00">u</text>
</g>
<!-- 14 -->
<g id="node15" class="node"><title>14</title>
<ellipse fill="none" stroke="#000000" cx="531" cy="-765" rx="22.8079" ry="22.8079"/>
<text text-anchor="middle" x="531" y="-760.4" font-family="Times Roman,serif" font-size="14.00">14</text>
</g>
<!-- 4&#45;&gt;14 -->
<g id="edge28" class="edge"><title>4&#45;&gt;14</title>
<path fill="none" stroke="black" d="M531,-839.626C531,-827.899 531,-812.35 531,-798.48"/>
<polygon fill="black" stroke="black" points="534.5,-798.293 531,-788.293 527.5,-798.293 534.5,-798.293"/>
<text text-anchor="middle" x="536" y="-809.4" font-family="Times Roman,serif" font-size="14.00">p</text>
</g>
<!-- 15 -->
<g id="node16" class="node"><title>15</title>
<ellipse fill="none" stroke="#000000" cx="600" cy="-765" rx="22.8079" ry="22.8079"/>
<text text-anchor="middle" x="600" y="-760.4" font-family="Times Roman,serif" font-size="14.00">15</text>
</g>
<!-- 5&#45;&gt;15 -->
<g id="edge30" class="edge"><title>5&#45;&gt;15</title>
<path fill="none" stroke="black" d="M591.121,-840.069C592.514,-828.292 594.379,-812.523 596.04,-798.478"/>
<polygon fill="black" stroke="black" points="599.561,-798.51 597.26,-788.168 592.609,-797.688 599.561,-798.51"/>
<text text-anchor="middle" x="599.5" y="-809.4" font-family="Times Roman,serif" font-size="14.00">e</text>
</g>
<!-- 16 -->
<g id="node17" class="node"><title>16</title>
<ellipse fill="none" stroke="#000000" cx="667" cy="-765" rx="22.8079" ry="22.8079"/>
<text text-anchor="middle" x="667" y="-760.4" font-family="Times Roman,serif" font-size="14.00">16</text>
</g>
<!-- 6&#45;&gt;16 -->
<g id="edge32" class="edge"><title>6&#45;&gt;16</title>
<path fill="none" stroke="black" d="M649.242,-840.069C652.095,-828.006 655.939,-811.756 659.321,-797.46"/>
<polygon fill="black" stroke="black" points="662.785,-798.02 661.681,-787.483 655.973,-796.409 662.785,-798.02"/>
<text text-anchor="middle" x="661" y="-809.4" font-family="Times Roman,serif" font-size="14.00">c</text>
</g>
<!-- 17 -->
<g id="node18" class="node"><title>17</title>
<ellipse fill="none" stroke="#000000" cx="735" cy="-765" rx="22.8079" ry="22.8079"/>
<text text-anchor="middle" x="735" y="-760.4" font-family="Times Roman,serif" font-size="14.00">17</text>
</g>
<!-- 7&#45;&gt;17 -->
<g id="edge34" class="edge"><title>7&#45;&gt;17</title>
<path fill="none" stroke="black" d="M706.42,-840.942C711.147,-828.382 717.706,-810.952 723.349,-795.959"/>
<polygon fill="black" stroke="black" points="726.649,-797.125 726.896,-786.533 720.098,-794.66 726.649,-797.125"/>
<text text-anchor="middle" x="722.5" y="-809.4" font-family="Times Roman,serif" font-size="14.00">o</text>
</g>
<!-- 18 -->
<g id="node19" class="node"><title>18</title>
<ellipse fill="none" stroke="#000000" cx="803" cy="-765" rx="22.8079" ry="22.8079"/>
<text text-anchor="middle" x="803" y="-760.4" font-family="Times Roman,serif" font-size="14.00">18</text>
</g>
<!-- 8&#45;&gt;18 -->
<g id="edge36" class="edge"><title>8&#45;&gt;18</title>
<path fill="none" stroke="black" d="M770.972,-841.373C776.256,-828.773 783.669,-811.098 790.032,-795.924"/>
<polygon fill="black" stroke="black" points="793.389,-796.968 794.029,-786.393 786.934,-794.261 793.389,-796.968"/>
<text text-anchor="middle" x="788.5" y="-809.4" font-family="Times Roman,serif" font-size="14.00">e</text>
</g>
<!-- 19 -->
<g id="node20" class="node"><title>19</title>
<ellipse fill="none" stroke="#000000" cx="27" cy="-663" rx="22.8079" ry="22.8079"/>
<ellipse fill="none" stroke="#000000" cx="27" cy="-663" rx="26.8079" ry="26.8079"/>
<text text-anchor="middle" x="27" y="-658.4" font-family="Times Roman,serif" font-size="14.00">19</text>
</g>
<!-- 9&#45;&gt;19 -->
<g id="edge38" class="edge"><title>9&#45;&gt;19</title>
<path fill="none" stroke="black" d="M67.288,-748.612C60.7588,-734.737 51.1845,-714.392 43.0075,-697.016"/>
<polygon fill="black" stroke="black" points="46.0616,-695.286 38.6367,-687.728 39.7278,-698.266 46.0616,-695.286"/>
<text text-anchor="middle" x="61" y="-711.4" font-family="Times Roman,serif" font-size="14.00">n</text>
</g>
<!-- 20 -->
<g id="node21" class="node"><title>20</title>
<ellipse fill="none" stroke="#000000" cx="99" cy="-663" rx="22.8079" ry="22.8079"/>
<ellipse fill="none" stroke="#000000" cx="99" cy="-663" rx="26.8079" ry="26.8079"/>
<text text-anchor="middle" x="99" y="-658.4" font-family="Times Roman,serif" font-size="14.00">20</text>
</g>
<!-- 10&#45;&gt;20 -->
<g id="edge40" class="edge"><title>10&#45;&gt;20</title>
<path fill="none" stroke="black" d="M141.275,-744.359C134.094,-730.539 124.483,-712.043 116.24,-696.178"/>
<polygon fill="black" stroke="black" points="119.289,-694.457 111.573,-687.197 113.078,-697.684 119.289,-694.457"/>
<text text-anchor="middle" x="136" y="-711.4" font-family="Times Roman,serif" font-size="14.00">n</text>
</g>
<!-- 21 -->
<g id="node22" class="node"><title>21</title>
<ellipse fill="none" stroke="#000000" cx="171" cy="-663" rx="22.8079" ry="22.8079"/>
<ellipse fill="none" stroke="#000000" cx="171" cy="-663" rx="26.8079" ry="26.8079"/>
<text text-anchor="middle" x="171" y="-658.4" font-family="Times Roman,serif" font-size="14.00">21</text>
</g>
<!-- 10&#45;&gt;21 -->
<g id="edge42" class="edge"><title>10&#45;&gt;21</title>
<path fill="none" stroke="black" d="M156.217,-742.363C158.557,-729.8 161.524,-713.871 164.185,-699.585"/>
<polygon fill="black" stroke="black" points="167.665,-700.017 166.055,-689.545 160.783,-698.735 167.665,-700.017"/>
<text text-anchor="middle" x="165" y="-711.4" font-family="Times Roman,serif" font-size="14.00">l</text>
</g>
<!-- 22 -->
<g id="node23" class="node"><title>22</title>
<ellipse fill="none" stroke="#000000" cx="243" cy="-663" rx="22.8079" ry="22.8079"/>
<ellipse fill="none" stroke="#000000" cx="243" cy="-663" rx="26.8079" ry="26.8079"/>
<text text-anchor="middle" x="243" y="-658.4" font-family="Times Roman,serif" font-size="14.00">22</text>
</g>
<!-- 11&#45;&gt;22 -->
<g id="edge44" class="edge"><title>11&#45;&gt;22</title>
<path fill="none" stroke="black" d="M299.834,-745.815C289.783,-731.17 275.734,-710.698 264.119,-693.773"/>
<polygon fill="black" stroke="black" points="266.845,-691.56 258.301,-685.296 261.074,-695.521 266.845,-691.56"/>
<text text-anchor="middle" x="290" y="-711.4" font-family="Times Roman,serif" font-size="14.00">b</text>
</g>
<!-- 23 -->
<g id="node24" class="node"><title>23</title>
<ellipse fill="none" stroke="#000000" cx="315" cy="-663" rx="22.8079" ry="22.8079"/>
<ellipse fill="none" stroke="#000000" cx="315" cy="-663" rx="26.8079" ry="26.8079"/>
<text text-anchor="middle" x="315" y="-658.4" font-family="Times Roman,serif" font-size="14.00">23</text>
</g>
<!-- 12&#45;&gt;23 -->
<g id="edge46" class="edge"><title>12&#45;&gt;23</title>
<path fill="none" stroke="black" d="M373.457,-745.815C363.12,-731.17 348.669,-710.698 336.722,-693.773"/>
<polygon fill="black" stroke="black" points="339.364,-691.447 330.738,-685.296 333.646,-695.484 339.364,-691.447"/>
<text text-anchor="middle" x="361" y="-711.4" font-family="Times Roman,serif" font-size="14.00">r</text>
</g>
<!-- 24 -->
<g id="node25" class="node"><title>24</title>
<ellipse fill="none" stroke="#000000" cx="387" cy="-663" rx="22.8079" ry="22.8079"/>
<ellipse fill="none" stroke="#000000" cx="387" cy="-663" rx="26.8079" ry="26.8079"/>
<text text-anchor="middle" x="387" y="-658.4" font-family="Times Roman,serif" font-size="14.00">24</text>
</g>
<!-- 12&#45;&gt;24 -->
<g id="edge48" class="edge"><title>12&#45;&gt;24</title>
<path fill="none" stroke="black" d="M387,-741.855C387,-729.583 387,-714.207 387,-700.3"/>
<polygon fill="black" stroke="black" points="390.5,-700.027 387,-690.027 383.5,-700.027 390.5,-700.027"/>
<text text-anchor="middle" x="391.5" y="-711.4" font-family="Times Roman,serif" font-size="14.00">y</text>
</g>
<!-- 25 -->
<g id="node26" class="node"><title>25</title>
<ellipse fill="none" stroke="#000000" cx="459" cy="-663" rx="22.8079" ry="22.8079"/>
<ellipse fill="none" stroke="#000000" cx="459" cy="-663" rx="26.8079" ry="26.8079"/>
<text text-anchor="middle" x="459" y="-658.4" font-family="Times Roman,serif" font-size="14.00">25</text>
</g>
<!-- 13&#45;&gt;25 -->
<g id="edge50" class="edge"><title>13&#45;&gt;25</title>
<path fill="none" stroke="black" d="M463.639,-741.855C462.917,-729.583 462.012,-714.207 461.194,-700.3"/>
<polygon fill="black" stroke="black" points="464.671,-699.804 460.59,-690.027 457.683,-700.215 464.671,-699.804"/>
<text text-anchor="middle" x="468" y="-711.4" font-family="Times Roman,serif" font-size="14.00">g</text>
</g>
<!-- 26 -->
<g id="node27" class="node"><title>26</title>
<ellipse fill="none" stroke="#000000" cx="531" cy="-663" rx="22.8079" ry="22.8079"/>
<ellipse fill="none" stroke="#000000" cx="531" cy="-663" rx="26.8079" ry="26.8079"/>
<text text-anchor="middle" x="531" y="-658.4" font-family="Times Roman,serif" font-size="14.00">26</text>
</g>
<!-- 14&#45;&gt;26 -->
<g id="edge52" class="edge"><title>14&#45;&gt;26</title>
<path fill="none" stroke="black" d="M531,-741.855C531,-729.583 531,-714.207 531,-700.3"/>
<polygon fill="black" stroke="black" points="534.5,-700.027 531,-690.027 527.5,-700.027 534.5,-700.027"/>
<text text-anchor="middle" x="534" y="-711.4" font-family="Times Roman,serif" font-size="14.00">r</text>
</g>
<!-- 27 -->
<g id="node28" class="node"><title>27</title>
<ellipse fill="none" stroke="#000000" cx="603" cy="-663" rx="22.8079" ry="22.8079"/>
<ellipse fill="none" stroke="#000000" cx="603" cy="-663" rx="26.8079" ry="26.8079"/>
<text text-anchor="middle" x="603" y="-658.4" font-family="Times Roman,serif" font-size="14.00">27</text>
</g>
<!-- 15&#45;&gt;27 -->
<g id="edge54" class="edge"><title>15&#45;&gt;27</title>
<path fill="none" stroke="black" d="M600.681,-741.855C601.042,-729.583 601.494,-714.207 601.903,-700.3"/>
<polygon fill="black" stroke="black" points="605.41,-700.125 602.205,-690.027 598.413,-699.919 605.41,-700.125"/>
<text text-anchor="middle" x="607" y="-711.4" font-family="Times Roman,serif" font-size="14.00">p</text>
</g>
<!-- 28 -->
<g id="node29" class="node"><title>28</title>
<ellipse fill="none" stroke="#000000" cx="675" cy="-663" rx="22.8079" ry="22.8079"/>
<ellipse fill="none" stroke="#000000" cx="675" cy="-663" rx="26.8079" ry="26.8079"/>
<text text-anchor="middle" x="675" y="-658.4" font-family="Times Roman,serif" font-size="14.00">28</text>
</g>
<!-- 16&#45;&gt;28 -->
<g id="edge56" class="edge"><title>16&#45;&gt;28</title>
<path fill="none" stroke="black" d="M668.815,-741.855C669.778,-729.583 670.984,-714.207 672.075,-700.3"/>
<polygon fill="black" stroke="black" points="675.588,-700.27 672.88,-690.027 668.609,-699.722 675.588,-700.27"/>
<text text-anchor="middle" x="674" y="-711.4" font-family="Times Roman,serif" font-size="14.00">t</text>
</g>
<!-- 29 -->
<g id="node30" class="node"><title>29</title>
<ellipse fill="none" stroke="#000000" cx="747" cy="-663" rx="22.8079" ry="22.8079"/>
<ellipse fill="none" stroke="#000000" cx="747" cy="-663" rx="26.8079" ry="26.8079"/>
<text text-anchor="middle" x="747" y="-658.4" font-family="Times Roman,serif" font-size="14.00">29</text>
</g>
<!-- 17&#45;&gt;29 -->
<g id="edge58" class="edge"><title>17&#45;&gt;29</title>
<path fill="none" stroke="black" d="M737.693,-742.109C739.136,-729.846 740.949,-714.43 742.592,-700.471"/>
<polygon fill="black" stroke="black" points="746.113,-700.498 743.805,-690.157 739.161,-699.68 746.113,-700.498"/>
<text text-anchor="middle" x="745.5" y="-711.4" font-family="Times Roman,serif" font-size="14.00">v</text>
</g>
<!-- 30 -->
<g id="node31" class="node"><title>30</title>
<ellipse fill="none" stroke="#000000" cx="819" cy="-663" rx="22.8079" ry="22.8079"/>
<ellipse fill="none" stroke="#000000" cx="819" cy="-663" rx="26.8079" ry="26.8079"/>
<text text-anchor="middle" x="819" y="-658.4" font-family="Times Roman,serif" font-size="14.00">30</text>
</g>
<!-- 18&#45;&gt;30 -->
<g id="edge60" class="edge"><title>18&#45;&gt;30</title>
<path fill="none" stroke="black" d="M806.591,-742.109C808.548,-729.631 811.017,-713.889 813.237,-699.739"/>
<polygon fill="black" stroke="black" points="816.706,-700.208 814.798,-689.787 809.791,-699.124 816.706,-700.208"/>
<text text-anchor="middle" x="815" y="-711.4" font-family="Times Roman,serif" font-size="14.00">c</text>
</g>
<!-- 31 -->
<g id="node32" class="node"><title>31</title>
<ellipse fill="none" stroke="#000000" cx="27" cy="-557" rx="22.8079" ry="22.8079"/>
<text text-anchor="middle" x="27" y="-552.4" font-family="Times Roman,serif" font-size="14.00">31</text>
</g>
<!-- 19&#45;&gt;31 -->
<g id="edge62" class="edge"><title>19&#45;&gt;31</title>
<path fill="none" stroke="black" d="M27,-635.977C27,-622.058 27,-604.964 27,-590.242"/>
<polygon fill="black" stroke="black" points="30.5001,-590.022 27,-580.022 23.5001,-590.022 30.5001,-590.022"/>
<text text-anchor="middle" x="32" y="-605.4" font-family="Times Roman,serif" font-size="14.00">u</text>
</g>
<!-- 32 -->
<g id="node33" class="node"><title>32</title>
<ellipse fill="none" stroke="#000000" cx="99" cy="-557" rx="22.8079" ry="22.8079"/>
<ellipse fill="none" stroke="#000000" cx="99" cy="-557" rx="26.8079" ry="26.8079"/>
<text text-anchor="middle" x="99" y="-552.4" font-family="Times Roman,serif" font-size="14.00">32</text>
</g>
<!-- 20&#45;&gt;32 -->
<g id="edge64" class="edge"><title>20&#45;&gt;32</title>
<path fill="none" stroke="black" d="M99,-635.977C99,-623.367 99,-608.149 99,-594.452"/>
<polygon fill="black" stroke="black" points="102.5,-594.342 99,-584.342 95.5001,-594.342 102.5,-594.342"/>
<text text-anchor="middle" x="103.5" y="-605.4" font-family="Times Roman,serif" font-size="14.00">e</text>
</g>
<!-- 33 -->
<g id="node34" class="node"><title>33</title>
<ellipse fill="none" stroke="#000000" cx="171" cy="-557" rx="22.8079" ry="22.8079"/>
<ellipse fill="none" stroke="#000000" cx="171" cy="-557" rx="26.8079" ry="26.8079"/>
<text text-anchor="middle" x="171" y="-552.4" font-family="Times Roman,serif" font-size="14.00">33</text>
</g>
<!-- 21&#45;&gt;33 -->
<g id="edge66" class="edge"><title>21&#45;&gt;33</title>
<path fill="none" stroke="black" d="M171,-635.977C171,-623.367 171,-608.149 171,-594.452"/>
<polygon fill="black" stroke="black" points="174.5,-594.342 171,-584.342 167.5,-594.342 174.5,-594.342"/>
<text text-anchor="middle" x="175.5" y="-605.4" font-family="Times Roman,serif" font-size="14.00">y</text>
</g>
<!-- 34 -->
<g id="node35" class="node"><title>34</title>
<ellipse fill="none" stroke="#000000" cx="243" cy="-557" rx="22.8079" ry="22.8079"/>
<text text-anchor="middle" x="243" y="-552.4" font-family="Times Roman,serif" font-size="14.00">34</text>
</g>
<!-- 22&#45;&gt;34 -->
<g id="edge68" class="edge"><title>22&#45;&gt;34</title>
<path fill="none" stroke="black" d="M243,-635.977C243,-622.058 243,-604.964 243,-590.242"/>
<polygon fill="black" stroke="black" points="246.5,-590.022 243,-580.022 239.5,-590.022 246.5,-590.022"/>
<text text-anchor="middle" x="246" y="-605.4" font-family="Times Roman,serif" font-size="14.00">r</text>
</g>
<!-- 35 -->
<g id="node36" class="node"><title>35</title>
<ellipse fill="none" stroke="#000000" cx="315" cy="-557" rx="22.8079" ry="22.8079"/>
<text text-anchor="middle" x="315" y="-552.4" font-family="Times Roman,serif" font-size="14.00">35</text>
</g>
<!-- 23&#45;&gt;35 -->
<g id="edge70" class="edge"><title>23&#45;&gt;35</title>
<path fill="none" stroke="black" d="M315,-635.977C315,-622.058 315,-604.964 315,-590.242"/>
<polygon fill="black" stroke="black" points="318.5,-590.022 315,-580.022 311.5,-590.022 318.5,-590.022"/>
<text text-anchor="middle" x="319" y="-605.4" font-family="Times Roman,serif" font-size="14.00">c</text>
</g>
<!-- 36 -->
<g id="node37" class="node"><title>36</title>
<ellipse fill="none" stroke="#000000" cx="459" cy="-557" rx="22.8079" ry="22.8079"/>
<text text-anchor="middle" x="459" y="-552.4" font-family="Times Roman,serif" font-size="14.00">36</text>
</g>
<!-- 25&#45;&gt;36 -->
<g id="edge72" class="edge"><title>25&#45;&gt;36</title>
<path fill="none" stroke="black" d="M459,-635.977C459,-622.058 459,-604.964 459,-590.242"/>
<polygon fill="black" stroke="black" points="462.5,-590.022 459,-580.022 455.5,-590.022 462.5,-590.022"/>
<text text-anchor="middle" x="464" y="-605.4" font-family="Times Roman,serif" font-size="14.00">u</text>
</g>
<!-- 37 -->
<g id="node38" class="node"><title>37</title>
<ellipse fill="none" stroke="#000000" cx="531" cy="-557" rx="22.8079" ry="22.8079"/>
<text text-anchor="middle" x="531" y="-552.4" font-family="Times Roman,serif" font-size="14.00">37</text>
</g>
<!-- 26&#45;&gt;37 -->
<g id="edge74" class="edge"><title>26&#45;&gt;37</title>
<path fill="none" stroke="black" d="M531,-635.977C531,-622.058 531,-604.964 531,-590.242"/>
<polygon fill="black" stroke="black" points="534.5,-590.022 531,-580.022 527.5,-590.022 534.5,-590.022"/>
<text text-anchor="middle" x="533" y="-605.4" font-family="Times Roman,serif" font-size="14.00">i</text>
</g>
<!-- 38 -->
<g id="node39" class="node"><title>38</title>
<ellipse fill="none" stroke="#000000" cx="603" cy="-557" rx="22.8079" ry="22.8079"/>
<text text-anchor="middle" x="603" y="-552.4" font-family="Times Roman,serif" font-size="14.00">38</text>
</g>
<!-- 27&#45;&gt;38 -->
<g id="edge76" class="edge"><title>27&#45;&gt;38</title>
<path fill="none" stroke="black" d="M603,-635.977C603,-622.058 603,-604.964 603,-590.242"/>
<polygon fill="black" stroke="black" points="606.5,-590.022 603,-580.022 599.5,-590.022 606.5,-590.022"/>
<text text-anchor="middle" x="606" y="-605.4" font-family="Times Roman,serif" font-size="14.00">t</text>
</g>
<!-- 39 -->
<g id="node40" class="node"><title>39</title>
<ellipse fill="none" stroke="#000000" cx="675" cy="-557" rx="22.8079" ry="22.8079"/>
<text text-anchor="middle" x="675" y="-552.4" font-family="Times Roman,serif" font-size="14.00">39</text>
</g>
<!-- 28&#45;&gt;39 -->
<g id="edge78" class="edge"><title>28&#45;&gt;39</title>
<path fill="none" stroke="black" d="M675,-635.977C675,-622.058 675,-604.964 675,-590.242"/>
<polygon fill="black" stroke="black" points="678.5,-590.022 675,-580.022 671.5,-590.022 678.5,-590.022"/>
<text text-anchor="middle" x="679.5" y="-605.4" font-family="Times Roman,serif" font-size="14.00">o</text>
</g>
<!-- 40 -->
<g id="node41" class="node"><title>40</title>
<ellipse fill="none" stroke="#000000" cx="747" cy="-557" rx="22.8079" ry="22.8079"/>
<text text-anchor="middle" x="747" y="-552.4" font-family="Times Roman,serif" font-size="14.00">40</text>
</g>
<!-- 29&#45;&gt;40 -->
<g id="edge80" class="edge"><title>29&#45;&gt;40</title>
<path fill="none" stroke="black" d="M747,-635.977C747,-622.058 747,-604.964 747,-590.242"/>
<polygon fill="black" stroke="black" points="750.5,-590.022 747,-580.022 743.5,-590.022 750.5,-590.022"/>
<text text-anchor="middle" x="751.5" y="-605.4" font-family="Times Roman,serif" font-size="14.00">e</text>
</g>
<!-- 41 -->
<g id="node42" class="node"><title>41</title>
<ellipse fill="none" stroke="#000000" cx="819" cy="-557" rx="22.8079" ry="22.8079"/>
<text text-anchor="middle" x="819" y="-552.4" font-family="Times Roman,serif" font-size="14.00">41</text>
</g>
<!-- 30&#45;&gt;41 -->
<g id="edge82" class="edge"><title>30&#45;&gt;41</title>
<path fill="none" stroke="black" d="M819,-635.977C819,-622.058 819,-604.964 819,-590.242"/>
<polygon fill="black" stroke="black" points="822.5,-590.022 819,-580.022 815.5,-590.022 822.5,-590.022"/>
<text text-anchor="middle" x="823.5" y="-605.4" font-family="Times Roman,serif" font-size="14.00">e</text>
</g>
<!-- 42 -->
<g id="node43" class="node"><title>42</title>
<ellipse fill="none" stroke="#000000" cx="27" cy="-451" rx="22.8079" ry="22.8079"/>
<text text-anchor="middle" x="27" y="-446.4" font-family="Times Roman,serif" font-size="14.00">42</text>
</g>
<!-- 31&#45;&gt;42 -->
<g id="edge84" class="edge"><title>31&#45;&gt;42</title>
<path fill="none" stroke="black" d="M27,-534C27,-519.515 27,-500.572 27,-484.441"/>
<polygon fill="black" stroke="black" points="30.5001,-484.322 27,-474.322 23.5001,-484.322 30.5001,-484.322"/>
<text text-anchor="middle" x="31.5" y="-499.4" font-family="Times Roman,serif" font-size="14.00">a</text>
</g>
<!-- 43 -->
<g id="node44" class="node"><title>43</title>
<ellipse fill="none" stroke="#000000" cx="243" cy="-451" rx="22.8079" ry="22.8079"/>
<text text-anchor="middle" x="243" y="-446.4" font-family="Times Roman,serif" font-size="14.00">43</text>
</g>
<!-- 34&#45;&gt;43 -->
<g id="edge86" class="edge"><title>34&#45;&gt;43</title>
<path fill="none" stroke="black" d="M243,-534C243,-519.515 243,-500.572 243,-484.441"/>
<polygon fill="black" stroke="black" points="246.5,-484.322 243,-474.322 239.5,-484.322 246.5,-484.322"/>
<text text-anchor="middle" x="248" y="-499.4" font-family="Times Roman,serif" font-size="14.00">u</text>
</g>
<!-- 44 -->
<g id="node45" class="node"><title>44</title>
<ellipse fill="none" stroke="#000000" cx="315" cy="-451" rx="22.8079" ry="22.8079"/>
<ellipse fill="none" stroke="#000000" cx="315" cy="-451" rx="26.8079" ry="26.8079"/>
<text text-anchor="middle" x="315" y="-446.4" font-family="Times Roman,serif" font-size="14.00">44</text>
</g>
<!-- 35&#45;&gt;44 -->
<g id="edge88" class="edge"><title>35&#45;&gt;44</title>
<path fill="none" stroke="black" d="M315,-534C315,-520.642 315,-503.494 315,-488.255"/>
<polygon fill="black" stroke="black" points="318.5,-488.08 315,-478.081 311.5,-488.081 318.5,-488.08"/>
<text text-anchor="middle" x="320" y="-499.4" font-family="Times Roman,serif" font-size="14.00">h</text>
</g>
<!-- 45 -->
<g id="node46" class="node"><title>45</title>
<ellipse fill="none" stroke="#000000" cx="459" cy="-451" rx="22.8079" ry="22.8079"/>
<text text-anchor="middle" x="459" y="-446.4" font-family="Times Roman,serif" font-size="14.00">45</text>
</g>
<!-- 36&#45;&gt;45 -->
<g id="edge90" class="edge"><title>36&#45;&gt;45</title>
<path fill="none" stroke="black" d="M459,-534C459,-519.515 459,-500.572 459,-484.441"/>
<polygon fill="black" stroke="black" points="462.5,-484.322 459,-474.322 455.5,-484.322 462.5,-484.322"/>
<text text-anchor="middle" x="463" y="-499.4" font-family="Times Roman,serif" font-size="14.00">s</text>
</g>
<!-- 46 -->
<g id="node47" class="node"><title>46</title>
<ellipse fill="none" stroke="#000000" cx="531" cy="-451" rx="22.8079" ry="22.8079"/>
<ellipse fill="none" stroke="#000000" cx="531" cy="-451" rx="26.8079" ry="26.8079"/>
<text text-anchor="middle" x="531" y="-446.4" font-family="Times Roman,serif" font-size="14.00">46</text>
</g>
<!-- 37&#45;&gt;46 -->
<g id="edge92" class="edge"><title>37&#45;&gt;46</title>
<path fill="none" stroke="black" d="M531,-534C531,-520.642 531,-503.494 531,-488.255"/>
<polygon fill="black" stroke="black" points="534.5,-488.08 531,-478.081 527.5,-488.081 534.5,-488.08"/>
<text text-anchor="middle" x="533" y="-499.4" font-family="Times Roman,serif" font-size="14.00">l</text>
</g>
<!-- 47 -->
<g id="node48" class="node"><title>47</title>
<ellipse fill="none" stroke="#000000" cx="603" cy="-451" rx="22.8079" ry="22.8079"/>
<text text-anchor="middle" x="603" y="-446.4" font-family="Times Roman,serif" font-size="14.00">47</text>
</g>
<!-- 38&#45;&gt;47 -->
<g id="edge94" class="edge"><title>38&#45;&gt;47</title>
<path fill="none" stroke="black" d="M603,-534C603,-519.515 603,-500.572 603,-484.441"/>
<polygon fill="black" stroke="black" points="606.5,-484.322 603,-474.322 599.5,-484.322 606.5,-484.322"/>
<text text-anchor="middle" x="607.5" y="-499.4" font-family="Times Roman,serif" font-size="14.00">e</text>
</g>
<!-- 48 -->
<g id="node49" class="node"><title>48</title>
<ellipse fill="none" stroke="#000000" cx="675" cy="-451" rx="22.8079" ry="22.8079"/>
<text text-anchor="middle" x="675" y="-446.4" font-family="Times Roman,serif" font-size="14.00">48</text>
</g>
<!-- 39&#45;&gt;48 -->
<g id="edge96" class="edge"><title>39&#45;&gt;48</title>
<path fill="none" stroke="black" d="M675,-534C675,-519.515 675,-500.572 675,-484.441"/>
<polygon fill="black" stroke="black" points="678.5,-484.322 675,-474.322 671.5,-484.322 678.5,-484.322"/>
<text text-anchor="middle" x="680" y="-499.4" font-family="Times Roman,serif" font-size="14.00">b</text>
</g>
<!-- 49 -->
<g id="node50" class="node"><title>49</title>
<ellipse fill="none" stroke="#000000" cx="747" cy="-451" rx="22.8079" ry="22.8079"/>
<text text-anchor="middle" x="747" y="-446.4" font-family="Times Roman,serif" font-size="14.00">49</text>
</g>
<!-- 40&#45;&gt;49 -->
<g id="edge98" class="edge"><title>40&#45;&gt;49</title>
<path fill="none" stroke="black" d="M747,-534C747,-519.515 747,-500.572 747,-484.441"/>
<polygon fill="black" stroke="black" points="750.5,-484.322 747,-474.322 743.5,-484.322 750.5,-484.322"/>
<text text-anchor="middle" x="754" y="-499.4" font-family="Times Roman,serif" font-size="14.00">m</text>
</g>
<!-- 50 -->
<g id="node51" class="node"><title>50</title>
<ellipse fill="none" stroke="#000000" cx="819" cy="-451" rx="22.8079" ry="22.8079"/>
<text text-anchor="middle" x="819" y="-446.4" font-family="Times Roman,serif" font-size="14.00">50</text>
</g>
<!-- 41&#45;&gt;50 -->
<g id="edge100" class="edge"><title>41&#45;&gt;50</title>
<path fill="none" stroke="black" d="M819,-534C819,-519.515 819,-500.572 819,-484.441"/>
<polygon fill="black" stroke="black" points="822.5,-484.322 819,-474.322 815.5,-484.322 822.5,-484.322"/>
<text text-anchor="middle" x="826" y="-499.4" font-family="Times Roman,serif" font-size="14.00">m</text>
</g>
<!-- 51 -->
<g id="node52" class="node"><title>51</title>
<ellipse fill="none" stroke="#000000" cx="27" cy="-345" rx="22.8079" ry="22.8079"/>
<text text-anchor="middle" x="27" y="-340.4" font-family="Times Roman,serif" font-size="14.00">51</text>
</g>
<!-- 42&#45;&gt;51 -->
<g id="edge102" class="edge"><title>42&#45;&gt;51</title>
<path fill="none" stroke="black" d="M27,-428C27,-413.515 27,-394.572 27,-378.441"/>
<polygon fill="black" stroke="black" points="30.5001,-378.322 27,-368.322 23.5001,-378.322 30.5001,-378.322"/>
<text text-anchor="middle" x="30" y="-393.4" font-family="Times Roman,serif" font-size="14.00">r</text>
</g>
<!-- 52 -->
<g id="node53" class="node"><title>52</title>
<ellipse fill="none" stroke="#000000" cx="243" cy="-345" rx="22.8079" ry="22.8079"/>
<text text-anchor="middle" x="243" y="-340.4" font-family="Times Roman,serif" font-size="14.00">52</text>
</g>
<!-- 43&#45;&gt;52 -->
<g id="edge104" class="edge"><title>43&#45;&gt;52</title>
<path fill="none" stroke="black" d="M243,-428C243,-413.515 243,-394.572 243,-378.441"/>
<polygon fill="black" stroke="black" points="246.5,-378.322 243,-368.322 239.5,-378.322 246.5,-378.322"/>
<text text-anchor="middle" x="247.5" y="-393.4" font-family="Times Roman,serif" font-size="14.00">a</text>
</g>
<!-- 53 -->
<g id="node54" class="node"><title>53</title>
<ellipse fill="none" stroke="#000000" cx="459" cy="-345" rx="22.8079" ry="22.8079"/>
<ellipse fill="none" stroke="#000000" cx="459" cy="-345" rx="26.8079" ry="26.8079"/>
<text text-anchor="middle" x="459" y="-340.4" font-family="Times Roman,serif" font-size="14.00">53</text>
</g>
<!-- 45&#45;&gt;53 -->
<g id="edge106" class="edge"><title>45&#45;&gt;53</title>
<path fill="none" stroke="black" d="M459,-428C459,-414.642 459,-397.494 459,-382.255"/>
<polygon fill="black" stroke="black" points="462.5,-382.08 459,-372.081 455.5,-382.081 462.5,-382.08"/>
<text text-anchor="middle" x="462" y="-393.4" font-family="Times Roman,serif" font-size="14.00">t</text>
</g>
<!-- 54 -->
<g id="node55" class="node"><title>54</title>
<ellipse fill="none" stroke="#000000" cx="603" cy="-345" rx="22.8079" ry="22.8079"/>
<text text-anchor="middle" x="603" y="-340.4" font-family="Times Roman,serif" font-size="14.00">54</text>
</g>
<!-- 47&#45;&gt;54 -->
<g id="edge108" class="edge"><title>47&#45;&gt;54</title>
<path fill="none" stroke="black" d="M603,-428C603,-413.515 603,-394.572 603,-378.441"/>
<polygon fill="black" stroke="black" points="606.5,-378.322 603,-368.322 599.5,-378.322 606.5,-378.322"/>
<text text-anchor="middle" x="610" y="-393.4" font-family="Times Roman,serif" font-size="14.00">m</text>
</g>
<!-- 55 -->
<g id="node56" class="node"><title>55</title>
<ellipse fill="none" stroke="#000000" cx="675" cy="-345" rx="22.8079" ry="22.8079"/>
<text text-anchor="middle" x="675" y="-340.4" font-family="Times Roman,serif" font-size="14.00">55</text>
</g>
<!-- 48&#45;&gt;55 -->
<g id="edge110" class="edge"><title>48&#45;&gt;55</title>
<path fill="none" stroke="black" d="M675,-428C675,-413.515 675,-394.572 675,-378.441"/>
<polygon fill="black" stroke="black" points="678.5,-378.322 675,-368.322 671.5,-378.322 678.5,-378.322"/>
<text text-anchor="middle" x="679.5" y="-393.4" font-family="Times Roman,serif" font-size="14.00">e</text>
</g>
<!-- 56 -->
<g id="node57" class="node"><title>56</title>
<ellipse fill="none" stroke="#000000" cx="747" cy="-345" rx="22.8079" ry="22.8079"/>
<text text-anchor="middle" x="747" y="-340.4" font-family="Times Roman,serif" font-size="14.00">56</text>
</g>
<!-- 49&#45;&gt;56 -->
<g id="edge112" class="edge"><title>49&#45;&gt;56</title>
<path fill="none" stroke="black" d="M747,-428C747,-413.515 747,-394.572 747,-378.441"/>
<polygon fill="black" stroke="black" points="750.5,-378.322 747,-368.322 743.5,-378.322 750.5,-378.322"/>
<text text-anchor="middle" x="752" y="-393.4" font-family="Times Roman,serif" font-size="14.00">b</text>
</g>
<!-- 57 -->
<g id="node58" class="node"><title>57</title>
<ellipse fill="none" stroke="#000000" cx="819" cy="-345" rx="22.8079" ry="22.8079"/>
<text text-anchor="middle" x="819" y="-340.4" font-family="Times Roman,serif" font-size="14.00">57</text>
</g>
<!-- 50&#45;&gt;57 -->
<g id="edge114" class="edge"><title>50&#45;&gt;57</title>
<path fill="none" stroke="black" d="M819,-428C819,-413.515 819,-394.572 819,-378.441"/>
<polygon fill="black" stroke="black" points="822.5,-378.322 819,-368.322 815.5,-378.322 822.5,-378.322"/>
<text text-anchor="middle" x="824" y="-393.4" font-family="Times Roman,serif" font-size="14.00">b</text>
</g>
<!-- 58 -->
<g id="node59" class="node"><title>58</title>
<ellipse fill="none" stroke="#000000" cx="27" cy="-239" rx="22.8079" ry="22.8079"/>
<ellipse fill="none" stroke="#000000" cx="27" cy="-239" rx="26.8079" ry="26.8079"/>
<text text-anchor="middle" x="27" y="-234.4" font-family="Times Roman,serif" font-size="14.00">58</text>
</g>
<!-- 51&#45;&gt;58 -->
<g id="edge116" class="edge"><title>51&#45;&gt;58</title>
<path fill="none" stroke="black" d="M27,-322C27,-308.642 27,-291.494 27,-276.255"/>
<polygon fill="black" stroke="black" points="30.5001,-276.08 27,-266.081 23.5001,-276.081 30.5001,-276.08"/>
<text text-anchor="middle" x="31.5" y="-287.4" font-family="Times Roman,serif" font-size="14.00">y</text>
</g>
<!-- 59 -->
<g id="node60" class="node"><title>59</title>
<ellipse fill="none" stroke="#000000" cx="243" cy="-239" rx="22.8079" ry="22.8079"/>
<text text-anchor="middle" x="243" y="-234.4" font-family="Times Roman,serif" font-size="14.00">59</text>
</g>
<!-- 52&#45;&gt;59 -->
<g id="edge118" class="edge"><title>52&#45;&gt;59</title>
<path fill="none" stroke="black" d="M243,-322C243,-307.515 243,-288.572 243,-272.441"/>
<polygon fill="black" stroke="black" points="246.5,-272.322 243,-262.322 239.5,-272.322 246.5,-272.322"/>
<text text-anchor="middle" x="246" y="-287.4" font-family="Times Roman,serif" font-size="14.00">r</text>
</g>
<!-- 60 -->
<g id="node61" class="node"><title>60</title>
<ellipse fill="none" stroke="#000000" cx="603" cy="-239" rx="22.8079" ry="22.8079"/>
<text text-anchor="middle" x="603" y="-234.4" font-family="Times Roman,serif" font-size="14.00">60</text>
</g>
<!-- 54&#45;&gt;60 -->
<g id="edge120" class="edge"><title>54&#45;&gt;60</title>
<path fill="none" stroke="black" d="M603,-322C603,-307.515 603,-288.572 603,-272.441"/>
<polygon fill="black" stroke="black" points="606.5,-272.322 603,-262.322 599.5,-272.322 606.5,-272.322"/>
<text text-anchor="middle" x="608" y="-287.4" font-family="Times Roman,serif" font-size="14.00">b</text>
</g>
<!-- 61 -->
<g id="node62" class="node"><title>61</title>
<ellipse fill="none" stroke="#000000" cx="675" cy="-239" rx="22.8079" ry="22.8079"/>
<ellipse fill="none" stroke="#000000" cx="675" cy="-239" rx="26.8079" ry="26.8079"/>
<text text-anchor="middle" x="675" y="-234.4" font-family="Times Roman,serif" font-size="14.00">61</text>
</g>
<!-- 55&#45;&gt;61 -->
<g id="edge122" class="edge"><title>55&#45;&gt;61</title>
<path fill="none" stroke="black" d="M675,-322C675,-308.642 675,-291.494 675,-276.255"/>
<polygon fill="black" stroke="black" points="678.5,-276.08 675,-266.081 671.5,-276.081 678.5,-276.08"/>
<text text-anchor="middle" x="678" y="-287.4" font-family="Times Roman,serif" font-size="14.00">r</text>
</g>
<!-- 62 -->
<g id="node63" class="node"><title>62</title>
<ellipse fill="none" stroke="#000000" cx="747" cy="-239" rx="22.8079" ry="22.8079"/>
<text text-anchor="middle" x="747" y="-234.4" font-family="Times Roman,serif" font-size="14.00">62</text>
</g>
<!-- 56&#45;&gt;62 -->
<g id="edge124" class="edge"><title>56&#45;&gt;62</title>
<path fill="none" stroke="black" d="M747,-322C747,-307.515 747,-288.572 747,-272.441"/>
<polygon fill="black" stroke="black" points="750.5,-272.322 747,-262.322 743.5,-272.322 750.5,-272.322"/>
<text text-anchor="middle" x="751.5" y="-287.4" font-family="Times Roman,serif" font-size="14.00">e</text>
</g>
<!-- 63 -->
<g id="node64" class="node"><title>63</title>
<ellipse fill="none" stroke="#000000" cx="819" cy="-239" rx="22.8079" ry="22.8079"/>
<text text-anchor="middle" x="819" y="-234.4" font-family="Times Roman,serif" font-size="14.00">63</text>
</g>
<!-- 57&#45;&gt;63 -->
<g id="edge126" class="edge"><title>57&#45;&gt;63</title>
<path fill="none" stroke="black" d="M819,-322C819,-307.515 819,-288.572 819,-272.441"/>
<polygon fill="black" stroke="black" points="822.5,-272.322 819,-262.322 815.5,-272.322 822.5,-272.322"/>
<text text-anchor="middle" x="823.5" y="-287.4" font-family="Times Roman,serif" font-size="14.00">e</text>
</g>
<!-- 64 -->
<g id="node65" class="node"><title>64</title>
<ellipse fill="none" stroke="#000000" cx="243" cy="-133" rx="22.8079" ry="22.8079"/>
<ellipse fill="none" stroke="#000000" cx="243" cy="-133" rx="26.8079" ry="26.8079"/>
<text text-anchor="middle" x="243" y="-128.4" font-family="Times Roman,serif" font-size="14.00">64</text>
</g>
<!-- 59&#45;&gt;64 -->
<g id="edge128" class="edge"><title>59&#45;&gt;64</title>
<path fill="none" stroke="black" d="M243,-216C243,-202.642 243,-185.494 243,-170.255"/>
<polygon fill="black" stroke="black" points="246.5,-170.08 243,-160.081 239.5,-170.081 246.5,-170.08"/>
<text text-anchor="middle" x="247.5" y="-181.4" font-family="Times Roman,serif" font-size="14.00">y</text>
</g>
<!-- 65 -->
<g id="node66" class="node"><title>65</title>
<ellipse fill="none" stroke="#000000" cx="603" cy="-133" rx="22.8079" ry="22.8079"/>
<text text-anchor="middle" x="603" y="-128.4" font-family="Times Roman,serif" font-size="14.00">65</text>
</g>
<!-- 60&#45;&gt;65 -->
<g id="edge130" class="edge"><title>60&#45;&gt;65</title>
<path fill="none" stroke="black" d="M603,-216C603,-201.515 603,-182.572 603,-166.441"/>
<polygon fill="black" stroke="black" points="606.5,-166.322 603,-156.322 599.5,-166.322 606.5,-166.322"/>
<text text-anchor="middle" x="607.5" y="-181.4" font-family="Times Roman,serif" font-size="14.00">e</text>
</g>
<!-- 66 -->
<g id="node67" class="node"><title>66</title>
<ellipse fill="none" stroke="#000000" cx="747" cy="-133" rx="22.8079" ry="22.8079"/>
<ellipse fill="none" stroke="#000000" cx="747" cy="-133" rx="26.8079" ry="26.8079"/>
<text text-anchor="middle" x="747" y="-128.4" font-family="Times Roman,serif" font-size="14.00">66</text>
</g>
<!-- 62&#45;&gt;66 -->
<g id="edge132" class="edge"><title>62&#45;&gt;66</title>
<path fill="none" stroke="black" d="M747,-216C747,-202.642 747,-185.494 747,-170.255"/>
<polygon fill="black" stroke="black" points="750.5,-170.08 747,-160.081 743.5,-170.081 750.5,-170.08"/>
<text text-anchor="middle" x="750" y="-181.4" font-family="Times Roman,serif" font-size="14.00">r</text>
</g>
<!-- 67 -->
<g id="node68" class="node"><title>67</title>
<ellipse fill="none" stroke="#000000" cx="819" cy="-133" rx="22.8079" ry="22.8079"/>
<ellipse fill="none" stroke="#000000" cx="819" cy="-133" rx="26.8079" ry="26.8079"/>
<text text-anchor="middle" x="819" y="-128.4" font-family="Times Roman,serif" font-size="14.00">67</text>
</g>
<!-- 63&#45;&gt;67 -->
<g id="edge134" class="edge"><title>63&#45;&gt;67</title>
<path fill="none" stroke="black" d="M819,-216C819,-202.642 819,-185.494 819,-170.255"/>
<polygon fill="black" stroke="black" points="822.5,-170.08 819,-160.081 815.5,-170.081 822.5,-170.08"/>
<text text-anchor="middle" x="822" y="-181.4" font-family="Times Roman,serif" font-size="14.00">r</text>
</g>
<!-- 68 -->
<g id="node69" class="node"><title>68</title>
<ellipse fill="none" stroke="#000000" cx="603" cy="-27" rx="22.8079" ry="22.8079"/>
<ellipse fill="none" stroke="#000000" cx="603" cy="-27" rx="26.8079" ry="26.8079"/>
<text text-anchor="middle" x="603" y="-22.4" font-family="Times Roman,serif" font-size="14.00">68</text>
</g>
<!-- 65&#45;&gt;68 -->
<g id="edge136" class="edge"><title>65&#45;&gt;68</title>
<path fill="none" stroke="black" d="M603,-110C603,-96.6419 603,-79.4935 603,-64.255"/>
<polygon fill="black" stroke="black" points="606.5,-64.0805 603,-54.0805 599.5,-64.0805 606.5,-64.0805"/>
<text text-anchor="middle" x="606" y="-75.4" font-family="Times Roman,serif" font-size="14.00">r</text>
</g>
</g>
</svg>
