<?xml version="1.0" encoding="UTF-8" standalone="no"?>
<!DOCTYPE svg PUBLIC "-//W3C//DTD SVG 1.1//EN"
 "http://www.w3.org/Graphics/SVG/1.1/DTD/svg11.dtd">
<!-- Generated by graphviz version 2.26.3 (20100126.1600)
 -->
<!-- Title: Finite_Automata_Graph Pages: 1 -->
<svg width="258pt" height="228pt"
 viewBox="0.00 0.00 258.00 228.00" xmlns="http://www.w3.org/2000/svg" xmlns:xlink="http://www.w3.org/1999/xlink">
<g id="graph1" class="graph" transform="scale(1 1) rotate(0) translate(4 224)">
<title>Finite_Automata_Graph</title>
<polygon fill="white" stroke="white" points="-4,5 -4,-224 255,-224 255,5 -4,5"/>
<!-- 0 -->
<g id="node1" class="node"><title>0</title>
<ellipse fill="none" stroke="#000000" cx="75" cy="-202" rx="18" ry="18"/>
<text text-anchor="middle" x="75" y="-197.4" font-family="Times Roman,serif" font-size="14.00">0</text>
</g>
<!-- 1 -->
<g id="node2" class="node"><title>1</title>
<ellipse fill="none" stroke="#000000" cx="18" cy="-114" rx="18" ry="18"/>
<text text-anchor="middle" x="18" y="-109.4" font-family="Times Roman,serif" font-size="14.00">1</text>
</g>
<!-- 0&#45;&gt;1 -->
<g id="edge2" class="edge"><title>0&#45;&gt;1</title>
<path fill="none" stroke="black" d="M64.8819,-186.986C60.5704,-180.547 55.5056,-172.926 51,-166 45.1149,-156.953 38.7404,-146.957 33.1773,-138.165"/>
<polygon fill="black" stroke="black" points="36.025,-136.12 27.7282,-129.531 30.1053,-139.856 36.025,-136.12"/>
<text text-anchor="middle" x="56" y="-153.4" font-family="Times Roman,serif" font-size="14.00">0</text>
</g>
<!-- 2 -->
<g id="node3" class="node"><title>2</title>
<ellipse fill="none" stroke="#000000" cx="30" cy="-22" rx="18" ry="18"/>
<ellipse fill="none" stroke="#000000" cx="30" cy="-22" rx="22" ry="22"/>
<text text-anchor="middle" x="30" y="-17.4" font-family="Times Roman,serif" font-size="14.00">2</text>
</g>
<!-- 0&#45;&gt;2 -->
<g id="edge4" class="edge"><title>0&#45;&gt;2</title>
<path fill="none" stroke="black" d="M76.2952,-184.02C77.5971,-156.633 77.4688,-103.294 61,-62 58.7482,-56.3538 55.4492,-50.8378 51.8336,-45.7941"/>
<polygon fill="black" stroke="black" points="54.5017,-43.5245 45.5788,-37.8121 48.9919,-47.8421 54.5017,-43.5245"/>
<text text-anchor="middle" x="97.5" y="-109.4" font-family="Times Roman,serif" font-size="14.00">/[1&#45;9]/</text>
</g>
<!-- 3 -->
<g id="node4" class="node"><title>3</title>
<ellipse fill="none" stroke="#000000" cx="163" cy="-114" rx="18" ry="18"/>
<text text-anchor="middle" x="163" y="-109.4" font-family="Times Roman,serif" font-size="14.00">3</text>
</g>
<!-- 0&#45;&gt;3 -->
<g id="edge6" class="edge"><title>0&#45;&gt;3</title>
<path fill="none" stroke="black" d="M87.9847,-189.015C102.496,-174.504 126.164,-150.836 143.033,-133.967"/>
<polygon fill="black" stroke="black" points="145.652,-136.298 150.248,-126.752 140.702,-131.348 145.652,-136.298"/>
<text text-anchor="middle" x="131" y="-153.4" font-family="Times Roman,serif" font-size="14.00">1</text>
</g>
<!-- 1&#45;&gt;2 -->
<g id="edge8" class="edge"><title>1&#45;&gt;2</title>
<path fill="none" stroke="black" d="M15.5011,-96.0726C14.5475,-85.9948 14.0928,-73.2225 16,-62 16.5547,-58.7359 17.347,-55.3834 18.2762,-52.0744"/>
<polygon fill="black" stroke="black" points="21.6545,-53.001 21.3738,-42.4099 14.9886,-50.8644 21.6545,-53.001"/>
<text text-anchor="middle" x="38.5" y="-65.4" font-family="Times Roman,serif" font-size="14.00">/[1&#45;9]/</text>
</g>
<!-- 4 -->
<g id="node5" class="node"><title>4</title>
<ellipse fill="none" stroke="#000000" cx="104" cy="-22" rx="18" ry="18"/>
<ellipse fill="none" stroke="#000000" cx="104" cy="-22" rx="22" ry="22"/>
<text text-anchor="middle" x="104" y="-17.4" font-family="Times Roman,serif" font-size="14.00">4</text>
</g>
<!-- 3&#45;&gt;4 -->
<g id="edge10" class="edge"><title>3&#45;&gt;4</title>
<path fill="none" stroke="black" d="M153.257,-98.8081C144.641,-85.3728 131.864,-65.4482 121.481,-49.2592"/>
<polygon fill="black" stroke="black" points="124.346,-47.2429 116.002,-40.7146 118.454,-51.0218 124.346,-47.2429"/>
<text text-anchor="middle" x="143" y="-65.4" font-family="Times Roman,serif" font-size="14.00">0</text>
</g>
<!-- 5 -->
<g id="node6" class="node"><title>5</title>
<ellipse fill="none" stroke="#000000" cx="166" cy="-22" rx="18" ry="18"/>
<ellipse fill="none" stroke="#000000" cx="166" cy="-22" rx="22" ry="22"/>
<text text-anchor="middle" x="166" y="-17.4" font-family="Times Roman,serif" font-size="14.00">5</text>
</g>
<!-- 3&#45;&gt;5 -->
<g id="edge12" class="edge"><title>3&#45;&gt;5</title>
<path fill="none" stroke="black" d="M163.593,-95.8238C163.979,-83.9726 164.494,-68.1746 164.949,-54.2345"/>
<polygon fill="black" stroke="black" points="168.454,-54.1414 165.282,-44.0326 161.457,-53.9132 168.454,-54.1414"/>
<text text-anchor="middle" x="169" y="-65.4" font-family="Times Roman,serif" font-size="14.00">1</text>
</g>
<!-- 6 -->
<g id="node7" class="node"><title>6</title>
<ellipse fill="none" stroke="#000000" cx="228" cy="-22" rx="18" ry="18"/>
<ellipse fill="none" stroke="#000000" cx="228" cy="-22" rx="22" ry="22"/>
<text text-anchor="middle" x="228" y="-17.4" font-family="Times Roman,serif" font-size="14.00">6</text>
</g>
<!-- 3&#45;&gt;6 -->
<g id="edge14" class="edge"><title>3&#45;&gt;6</title>
<path fill="none" stroke="black" d="M173.443,-99.2186C183.1,-85.5504 197.676,-64.9196 209.333,-48.4204"/>
<polygon fill="black" stroke="black" points="212.21,-50.4146 215.122,-40.2278 206.493,-46.3754 212.21,-50.4146"/>
<text text-anchor="middle" x="204" y="-65.4" font-family="Times Roman,serif" font-size="14.00">2</text>
</g>
</g>
</svg>
