<?xml version="1.0" encoding="UTF-8" standalone="no"?>
<!DOCTYPE svg PUBLIC "-//W3C//DTD SVG 1.1//EN"
 "http://www.w3.org/Graphics/SVG/1.1/DTD/svg11.dtd">
<!-- Generated by graphviz version 2.26.3 (20100126.1600)
 -->
<!-- Title: Finite_Automata_Graph Pages: 1 -->
<svg width="217pt" height="866pt"
 viewBox="0.00 0.00 217.00 866.00" xmlns="http://www.w3.org/2000/svg" xmlns:xlink="http://www.w3.org/1999/xlink">
<g id="graph1" class="graph" transform="scale(1 1) rotate(0) translate(4 862)">
<title>Finite_Automata_Graph</title>
<polygon fill="white" stroke="white" points="-4,5 -4,-862 214,-862 214,5 -4,5"/>
<!-- 0 -->
<g id="node1" class="node"><title>0</title>
<ellipse fill="none" stroke="#000000" cx="65" cy="-840" rx="18" ry="18"/>
<text text-anchor="middle" x="65" y="-835.4" font-family="Times Roman,serif" font-size="14.00">0</text>
</g>
<!-- 1 -->
<g id="node2" class="node"><title>1</title>
<ellipse fill="none" stroke="#000000" cx="36" cy="-752" rx="18" ry="18"/>
<text text-anchor="middle" x="36" y="-747.4" font-family="Times Roman,serif" font-size="14.00">1</text>
</g>
<!-- 0&#45;&gt;1 -->
<g id="edge2" class="edge"><title>0&#45;&gt;1</title>
<path fill="none" stroke="black" d="M59.2705,-822.614C55.1794,-810.2 49.5962,-793.258 44.9242,-779.08"/>
<polygon fill="black" stroke="black" points="48.1717,-777.752 41.7176,-769.35 41.5234,-779.943 48.1717,-777.752"/>
<text text-anchor="middle" x="57" y="-791.4" font-family="Times Roman,serif" font-size="14.00">ε</text>
</g>
<!-- 3 -->
<g id="node4" class="node"><title>3</title>
<ellipse fill="none" stroke="#000000" cx="90" cy="-752" rx="18" ry="18"/>
<text text-anchor="middle" x="90" y="-747.4" font-family="Times Roman,serif" font-size="14.00">3</text>
</g>
<!-- 0&#45;&gt;3 -->
<g id="edge4" class="edge"><title>0&#45;&gt;3</title>
<path fill="none" stroke="black" d="M69.9392,-822.614C73.466,-810.2 78.2791,-793.258 82.3067,-779.08"/>
<polygon fill="black" stroke="black" points="85.705,-779.926 85.0711,-769.35 78.9714,-778.013 85.705,-779.926"/>
<text text-anchor="middle" x="83" y="-791.4" font-family="Times Roman,serif" font-size="14.00">ε</text>
</g>
<!-- 6 -->
<g id="node7" class="node"><title>6</title>
<ellipse fill="none" stroke="#000000" cx="18" cy="-664" rx="18" ry="18"/>
<text text-anchor="middle" x="18" y="-659.4" font-family="Times Roman,serif" font-size="14.00">6</text>
</g>
<!-- 1&#45;&gt;6 -->
<g id="edge6" class="edge"><title>1&#45;&gt;6</title>
<path fill="none" stroke="black" d="M24.0759,-738.286C19.3364,-731.949 14.4379,-724.052 12,-716 9.6196,-708.138 9.66821,-699.345 10.7273,-691.259"/>
<polygon fill="black" stroke="black" points="14.2155,-691.641 12.5823,-681.173 7.33101,-690.375 14.2155,-691.641"/>
<text text-anchor="middle" x="16" y="-703.4" font-family="Times Roman,serif" font-size="14.00">ε</text>
</g>
<!-- 1&#45;&gt;6 -->
<g id="edge8" class="edge"><title>1&#45;&gt;6</title>
<path fill="none" stroke="black" d="M32.3574,-734.192C29.8689,-722.026 26.5211,-705.658 23.6842,-691.789"/>
<polygon fill="black" stroke="black" points="27.0702,-690.877 21.6372,-681.782 20.2122,-692.28 27.0702,-690.877"/>
<text text-anchor="middle" x="33" y="-703.4" font-family="Times Roman,serif" font-size="14.00">0</text>
</g>
<!-- 2 -->
<g id="node3" class="node"><title>2</title>
<ellipse fill="none" stroke="#000000" cx="25" cy="-487" rx="18" ry="18"/>
<text text-anchor="middle" x="25" y="-482.4" font-family="Times Roman,serif" font-size="14.00">2</text>
</g>
<!-- 5 -->
<g id="node6" class="node"><title>5</title>
<ellipse fill="none" stroke="#000000" cx="44" cy="-22" rx="18" ry="18"/>
<ellipse fill="none" stroke="#000000" cx="44" cy="-22" rx="22" ry="22"/>
<text text-anchor="middle" x="44" y="-17.4" font-family="Times Roman,serif" font-size="14.00">5</text>
</g>
<!-- 2&#45;&gt;5 -->
<g id="edge10" class="edge"><title>2&#45;&gt;5</title>
<path fill="none" stroke="black" d="M25,-468.662C25,-444.626 25,-401.156 25,-364 25,-364 25,-364 25,-114 25,-93.277 29.6807,-70.4609 34.3956,-52.7346"/>
<polygon fill="black" stroke="black" points="37.8121,-53.5136 37.1406,-42.9401 31.0718,-51.6246 37.8121,-53.5136"/>
<text text-anchor="middle" x="29" y="-251.4" font-family="Times Roman,serif" font-size="14.00">ε</text>
</g>
<!-- 7 -->
<g id="node8" class="node"><title>7</title>
<ellipse fill="none" stroke="#000000" cx="86" cy="-610" rx="18" ry="18"/>
<text text-anchor="middle" x="86" y="-605.4" font-family="Times Roman,serif" font-size="14.00">7</text>
</g>
<!-- 3&#45;&gt;7 -->
<g id="edge12" class="edge"><title>3&#45;&gt;7</title>
<path fill="none" stroke="black" d="M89.4853,-733.727C88.8042,-709.55 87.5968,-666.685 86.7973,-638.303"/>
<polygon fill="black" stroke="black" points="90.2931,-638.101 86.5128,-628.203 83.2958,-638.298 90.2931,-638.101"/>
<text text-anchor="middle" x="92" y="-703.4" font-family="Times Roman,serif" font-size="14.00">ε</text>
</g>
<!-- 9 -->
<g id="node10" class="node"><title>9</title>
<ellipse fill="none" stroke="#000000" cx="132" cy="-664" rx="18" ry="18"/>
<text text-anchor="middle" x="132" y="-659.4" font-family="Times Roman,serif" font-size="14.00">9</text>
</g>
<!-- 3&#45;&gt;9 -->
<g id="edge14" class="edge"><title>3&#45;&gt;9</title>
<path fill="none" stroke="black" d="M97.8999,-735.448C104.06,-722.542 112.723,-704.39 119.776,-689.613"/>
<polygon fill="black" stroke="black" points="122.987,-691.01 124.136,-680.478 116.67,-687.995 122.987,-691.01"/>
<text text-anchor="middle" x="118" y="-703.4" font-family="Times Roman,serif" font-size="14.00">ε</text>
</g>
<!-- 4 -->
<g id="node5" class="node"><title>4</title>
<ellipse fill="none" stroke="#000000" cx="71" cy="-114" rx="18" ry="18"/>
<text text-anchor="middle" x="71" y="-109.4" font-family="Times Roman,serif" font-size="14.00">4</text>
</g>
<!-- 4&#45;&gt;5 -->
<g id="edge16" class="edge"><title>4&#45;&gt;5</title>
<path fill="none" stroke="black" d="M65.9215,-96.6955C62.3221,-84.431 57.3929,-67.6352 53.1202,-53.0762"/>
<polygon fill="black" stroke="black" points="56.4659,-52.0472 50.2914,-43.4375 49.7492,-54.0184 56.4659,-52.0472"/>
<text text-anchor="middle" x="63" y="-65.4" font-family="Times Roman,serif" font-size="14.00">ε</text>
</g>
<!-- 6&#45;&gt;2 -->
<g id="edge18" class="edge"><title>6&#45;&gt;2</title>
<path fill="none" stroke="black" d="M15.6146,-646.087C14.953,-640.324 14.3269,-633.902 14,-628 11.8208,-588.653 16.6976,-543.222 20.6396,-514.801"/>
<polygon fill="black" stroke="black" points="24.12,-515.187 22.088,-504.789 17.1921,-514.185 24.12,-515.187"/>
<text text-anchor="middle" x="36.5" y="-605.4" font-family="Times Roman,serif" font-size="14.00">/[1&#45;9]/</text>
</g>
<!-- 11 -->
<g id="node12" class="node"><title>11</title>
<ellipse fill="none" stroke="#000000" cx="71" cy="-487" rx="22.8079" ry="22.8079"/>
<text text-anchor="middle" x="71" y="-482.4" font-family="Times Roman,serif" font-size="14.00">11</text>
</g>
<!-- 7&#45;&gt;11 -->
<g id="edge20" class="edge"><title>7&#45;&gt;11</title>
<path fill="none" stroke="black" d="M82.7896,-592.088C81.8169,-586.324 80.7964,-579.903 80,-574 77.6016,-556.224 75.5003,-536.329 73.9326,-520.056"/>
<polygon fill="black" stroke="black" points="77.4027,-519.571 72.9818,-509.943 70.4334,-520.227 77.4027,-519.571"/>
<text text-anchor="middle" x="85" y="-546.4" font-family="Times Roman,serif" font-size="14.00">1</text>
</g>
<!-- 8 -->
<g id="node9" class="node"><title>8</title>
<ellipse fill="none" stroke="#000000" cx="71" cy="-364" rx="18" ry="18"/>
<text text-anchor="middle" x="71" y="-359.4" font-family="Times Roman,serif" font-size="14.00">8</text>
</g>
<!-- 8&#45;&gt;4 -->
<g id="edge22" class="edge"><title>8&#45;&gt;4</title>
<path fill="none" stroke="black" d="M71,-345.617C71,-302.349 71,-193.848 71,-142.189"/>
<polygon fill="black" stroke="black" points="74.5001,-142.073 71,-132.073 67.5001,-142.073 74.5001,-142.073"/>
<text text-anchor="middle" x="75" y="-251.4" font-family="Times Roman,serif" font-size="14.00">ε</text>
</g>
<!-- 12 -->
<g id="node13" class="node"><title>12</title>
<ellipse fill="none" stroke="#000000" cx="122" cy="-551" rx="22.8079" ry="22.8079"/>
<text text-anchor="middle" x="122" y="-546.4" font-family="Times Roman,serif" font-size="14.00">12</text>
</g>
<!-- 9&#45;&gt;12 -->
<g id="edge24" class="edge"><title>9&#45;&gt;12</title>
<path fill="none" stroke="black" d="M130.393,-645.845C128.926,-629.269 126.722,-604.357 124.94,-584.223"/>
<polygon fill="black" stroke="black" points="128.421,-583.852 124.053,-574.2 121.448,-584.469 128.421,-583.852"/>
<text text-anchor="middle" x="132" y="-605.4" font-family="Times Roman,serif" font-size="14.00">ε</text>
</g>
<!-- 14 -->
<g id="node15" class="node"><title>14</title>
<ellipse fill="none" stroke="#000000" cx="186" cy="-551" rx="22.8079" ry="22.8079"/>
<text text-anchor="middle" x="186" y="-546.4" font-family="Times Roman,serif" font-size="14.00">14</text>
</g>
<!-- 9&#45;&gt;14 -->
<g id="edge26" class="edge"><title>9&#45;&gt;14</title>
<path fill="none" stroke="black" d="M139.968,-647.326C148.262,-629.971 161.431,-602.414 171.562,-581.212"/>
<polygon fill="black" stroke="black" points="174.822,-582.509 175.975,-571.977 168.506,-579.491 174.822,-582.509"/>
<text text-anchor="middle" x="169" y="-605.4" font-family="Times Roman,serif" font-size="14.00">ε</text>
</g>
<!-- 10 -->
<g id="node11" class="node"><title>10</title>
<ellipse fill="none" stroke="#000000" cx="122" cy="-207" rx="22.8079" ry="22.8079"/>
<text text-anchor="middle" x="122" y="-202.4" font-family="Times Roman,serif" font-size="14.00">10</text>
</g>
<!-- 10&#45;&gt;4 -->
<g id="edge28" class="edge"><title>10&#45;&gt;4</title>
<path fill="none" stroke="black" d="M110.934,-186.82C103.17,-172.664 92.7455,-153.654 84.494,-138.607"/>
<polygon fill="black" stroke="black" points="87.5576,-136.914 79.6803,-129.829 81.4199,-140.28 87.5576,-136.914"/>
<text text-anchor="middle" x="102" y="-153.4" font-family="Times Roman,serif" font-size="14.00">ε</text>
</g>
<!-- 11&#45;&gt;8 -->
<g id="edge30" class="edge"><title>11&#45;&gt;8</title>
<path fill="none" stroke="black" d="M71,-463.865C71,-443.624 71,-414.152 71,-392.469"/>
<polygon fill="black" stroke="black" points="74.5001,-392.228 71,-382.228 67.5001,-392.228 74.5001,-392.228"/>
<text text-anchor="middle" x="76" y="-418.4" font-family="Times Roman,serif" font-size="14.00">0</text>
</g>
<!-- 16 -->
<g id="node17" class="node"><title>16</title>
<ellipse fill="none" stroke="#000000" cx="122" cy="-423" rx="22.8079" ry="22.8079"/>
<text text-anchor="middle" x="122" y="-418.4" font-family="Times Roman,serif" font-size="14.00">16</text>
</g>
<!-- 12&#45;&gt;16 -->
<g id="edge32" class="edge"><title>12&#45;&gt;16</title>
<path fill="none" stroke="black" d="M122,-527.82C122,-507.794 122,-478.616 122,-456.126"/>
<polygon fill="black" stroke="black" points="125.5,-456.007 122,-446.007 118.5,-456.007 125.5,-456.007"/>
<text text-anchor="middle" x="127" y="-482.4" font-family="Times Roman,serif" font-size="14.00">1</text>
</g>
<!-- 13 -->
<g id="node14" class="node"><title>13</title>
<ellipse fill="none" stroke="#000000" cx="122" cy="-305" rx="22.8079" ry="22.8079"/>
<text text-anchor="middle" x="122" y="-300.4" font-family="Times Roman,serif" font-size="14.00">13</text>
</g>
<!-- 13&#45;&gt;10 -->
<g id="edge34" class="edge"><title>13&#45;&gt;10</title>
<path fill="none" stroke="black" d="M122,-281.775C122,-269.327 122,-253.775 122,-240.083"/>
<polygon fill="black" stroke="black" points="125.5,-240.058 122,-230.058 118.5,-240.058 125.5,-240.058"/>
<text text-anchor="middle" x="126" y="-251.4" font-family="Times Roman,serif" font-size="14.00">ε</text>
</g>
<!-- 17 -->
<g id="node18" class="node"><title>17</title>
<ellipse fill="none" stroke="#000000" cx="186" cy="-423" rx="22.8079" ry="22.8079"/>
<text text-anchor="middle" x="186" y="-418.4" font-family="Times Roman,serif" font-size="14.00">17</text>
</g>
<!-- 14&#45;&gt;17 -->
<g id="edge36" class="edge"><title>14&#45;&gt;17</title>
<path fill="none" stroke="black" d="M186,-527.82C186,-507.794 186,-478.616 186,-456.126"/>
<polygon fill="black" stroke="black" points="189.5,-456.007 186,-446.007 182.5,-456.007 189.5,-456.007"/>
<text text-anchor="middle" x="191" y="-482.4" font-family="Times Roman,serif" font-size="14.00">1</text>
</g>
<!-- 15 -->
<g id="node16" class="node"><title>15</title>
<ellipse fill="none" stroke="#000000" cx="186" cy="-305" rx="22.8079" ry="22.8079"/>
<text text-anchor="middle" x="186" y="-300.4" font-family="Times Roman,serif" font-size="14.00">15</text>
</g>
<!-- 15&#45;&gt;10 -->
<g id="edge38" class="edge"><title>15&#45;&gt;10</title>
<path fill="none" stroke="black" d="M173.356,-285.638C163.889,-271.142 150.801,-251.102 140.208,-234.881"/>
<polygon fill="black" stroke="black" points="143.016,-232.78 134.618,-226.321 137.156,-236.608 143.016,-232.78"/>
<text text-anchor="middle" x="161" y="-251.4" font-family="Times Roman,serif" font-size="14.00">ε</text>
</g>
<!-- 16&#45;&gt;13 -->
<g id="edge40" class="edge"><title>16&#45;&gt;13</title>
<path fill="none" stroke="black" d="M122,-399.968C122,-382.458 122,-358.112 122,-338.454"/>
<polygon fill="black" stroke="black" points="125.5,-338.377 122,-328.377 118.5,-338.377 125.5,-338.377"/>
<text text-anchor="middle" x="127" y="-359.4" font-family="Times Roman,serif" font-size="14.00">1</text>
</g>
<!-- 17&#45;&gt;15 -->
<g id="edge42" class="edge"><title>17&#45;&gt;15</title>
<path fill="none" stroke="black" d="M186,-399.968C186,-382.458 186,-358.112 186,-338.454"/>
<polygon fill="black" stroke="black" points="189.5,-338.377 186,-328.377 182.5,-338.377 189.5,-338.377"/>
<text text-anchor="middle" x="191" y="-359.4" font-family="Times Roman,serif" font-size="14.00">2</text>
</g>
</g>
</svg>
