<?xml version="1.0" encoding="UTF-8" standalone="no"?>
<!DOCTYPE svg PUBLIC "-//W3C//DTD SVG 1.1//EN"
 "http://www.w3.org/Graphics/SVG/1.1/DTD/svg11.dtd">
<!-- Generated by graphviz version 2.26.3 (20100126.1600)
 -->
<!-- Title: Finite_Automata_Graph Pages: 1 -->
<svg width="160pt" height="2902pt"
 viewBox="0.00 0.00 159.78 2902.00" xmlns="http://www.w3.org/2000/svg" xmlns:xlink="http://www.w3.org/1999/xlink">
<g id="graph1" class="graph" transform="scale(1 1) rotate(0) translate(4 2898)">
<title>Finite_Automata_Graph</title>
<polygon fill="white" stroke="white" points="-4,5 -4,-2898 156.782,-2898 156.782,5 -4,5"/>
<!-- 0 -->
<g id="node1" class="node"><title>0</title>
<ellipse fill="none" stroke="#000000" cx="99.7822" cy="-2876" rx="18" ry="18"/>
<text text-anchor="middle" x="99.7822" y="-2871.4" font-family="Times Roman,serif" font-size="14.00">0</text>
</g>
<!-- 1 -->
<g id="node2" class="node"><title>1</title>
<ellipse fill="none" stroke="#000000" cx="99.7822" cy="-2788" rx="18" ry="18"/>
<text text-anchor="middle" x="99.7822" y="-2783.4" font-family="Times Roman,serif" font-size="14.00">1</text>
</g>
<!-- 0&#45;&gt;1 -->
<g id="edge2" class="edge"><title>0&#45;&gt;1</title>
<path fill="none" stroke="black" d="M99.7822,-2857.77C99.7822,-2845.85 99.7822,-2830.04 99.7822,-2816.48"/>
<polygon fill="black" stroke="black" points="103.282,-2816.21 99.7822,-2806.21 96.2823,-2816.21 103.282,-2816.21"/>
<text text-anchor="middle" x="104.782" y="-2827.4" font-family="Times Roman,serif" font-size="14.00">b</text>
</g>
<!-- 2 -->
<g id="node3" class="node"><title>2</title>
<ellipse fill="none" stroke="#000000" cx="99.7822" cy="-2700" rx="18" ry="18"/>
<text text-anchor="middle" x="99.7822" y="-2695.4" font-family="Times Roman,serif" font-size="14.00">2</text>
</g>
<!-- 1&#45;&gt;2 -->
<g id="edge4" class="edge"><title>1&#45;&gt;2</title>
<path fill="none" stroke="black" d="M99.7822,-2769.77C99.7822,-2757.85 99.7822,-2742.04 99.7822,-2728.48"/>
<polygon fill="black" stroke="black" points="103.282,-2728.21 99.7822,-2718.21 96.2823,-2728.21 103.282,-2728.21"/>
<text text-anchor="middle" x="101.782" y="-2739.4" font-family="Times Roman,serif" font-size="14.00">i</text>
</g>
<!-- 3 -->
<g id="node4" class="node"><title>3</title>
<ellipse fill="none" stroke="#000000" cx="99.7822" cy="-2612" rx="18" ry="18"/>
<text text-anchor="middle" x="99.7822" y="-2607.4" font-family="Times Roman,serif" font-size="14.00">3</text>
</g>
<!-- 2&#45;&gt;3 -->
<g id="edge6" class="edge"><title>2&#45;&gt;3</title>
<path fill="none" stroke="black" d="M99.7822,-2681.77C99.7822,-2669.85 99.7822,-2654.04 99.7822,-2640.48"/>
<polygon fill="black" stroke="black" points="103.282,-2640.21 99.7822,-2630.21 96.2823,-2640.21 103.282,-2640.21"/>
<text text-anchor="middle" x="102.782" y="-2651.4" font-family="Times Roman,serif" font-size="14.00">r</text>
</g>
<!-- 4 -->
<g id="node5" class="node"><title>4</title>
<ellipse fill="none" stroke="#000000" cx="99.7822" cy="-2524" rx="18" ry="18"/>
<text text-anchor="middle" x="99.7822" y="-2519.4" font-family="Times Roman,serif" font-size="14.00">4</text>
</g>
<!-- 3&#45;&gt;4 -->
<g id="edge8" class="edge"><title>3&#45;&gt;4</title>
<path fill="none" stroke="black" d="M99.7822,-2593.77C99.7822,-2581.85 99.7822,-2566.04 99.7822,-2552.48"/>
<polygon fill="black" stroke="black" points="103.282,-2552.21 99.7822,-2542.21 96.2823,-2552.21 103.282,-2552.21"/>
<text text-anchor="middle" x="102.782" y="-2563.4" font-family="Times Roman,serif" font-size="14.00">t</text>
</g>
<!-- 5 -->
<g id="node6" class="node"><title>5</title>
<ellipse fill="none" stroke="#000000" cx="99.7822" cy="-2436" rx="18" ry="18"/>
<text text-anchor="middle" x="99.7822" y="-2431.4" font-family="Times Roman,serif" font-size="14.00">5</text>
</g>
<!-- 4&#45;&gt;5 -->
<g id="edge10" class="edge"><title>4&#45;&gt;5</title>
<path fill="none" stroke="black" d="M99.7822,-2505.77C99.7822,-2493.85 99.7822,-2478.04 99.7822,-2464.48"/>
<polygon fill="black" stroke="black" points="103.282,-2464.21 99.7822,-2454.21 96.2823,-2464.21 103.282,-2464.21"/>
<text text-anchor="middle" x="104.782" y="-2475.4" font-family="Times Roman,serif" font-size="14.00">h</text>
</g>
<!-- 6 -->
<g id="node7" class="node"><title>6</title>
<ellipse fill="none" stroke="#000000" cx="99.7822" cy="-2348" rx="18" ry="18"/>
<text text-anchor="middle" x="99.7822" y="-2343.4" font-family="Times Roman,serif" font-size="14.00">6</text>
</g>
<!-- 5&#45;&gt;6 -->
<g id="edge12" class="edge"><title>5&#45;&gt;6</title>
<path fill="none" stroke="black" d="M99.7822,-2417.77C99.7822,-2405.85 99.7822,-2390.04 99.7822,-2376.48"/>
<polygon fill="black" stroke="black" points="103.282,-2376.21 99.7822,-2366.21 96.2823,-2376.21 103.282,-2376.21"/>
<text text-anchor="middle" x="104.282" y="-2387.4" font-family="Times Roman,serif" font-size="14.00">_</text>
</g>
<!-- 7 -->
<g id="node8" class="node"><title>7</title>
<ellipse fill="none" stroke="#000000" cx="99.7822" cy="-2260" rx="18" ry="18"/>
<text text-anchor="middle" x="99.7822" y="-2255.4" font-family="Times Roman,serif" font-size="14.00">7</text>
</g>
<!-- 6&#45;&gt;7 -->
<g id="edge14" class="edge"><title>6&#45;&gt;7</title>
<path fill="none" stroke="black" d="M99.7822,-2329.77C99.7822,-2317.85 99.7822,-2302.04 99.7822,-2288.48"/>
<polygon fill="black" stroke="black" points="103.282,-2288.21 99.7822,-2278.21 96.2823,-2288.21 103.282,-2288.21"/>
<text text-anchor="middle" x="104.782" y="-2299.4" font-family="Times Roman,serif" font-size="14.00">d</text>
</g>
<!-- 8 -->
<g id="node9" class="node"><title>8</title>
<ellipse fill="none" stroke="#000000" cx="99.7822" cy="-2172" rx="18" ry="18"/>
<text text-anchor="middle" x="99.7822" y="-2167.4" font-family="Times Roman,serif" font-size="14.00">8</text>
</g>
<!-- 7&#45;&gt;8 -->
<g id="edge16" class="edge"><title>7&#45;&gt;8</title>
<path fill="none" stroke="black" d="M99.7822,-2241.77C99.7822,-2229.85 99.7822,-2214.04 99.7822,-2200.48"/>
<polygon fill="black" stroke="black" points="103.282,-2200.21 99.7822,-2190.21 96.2823,-2200.21 103.282,-2200.21"/>
<text text-anchor="middle" x="104.282" y="-2211.4" font-family="Times Roman,serif" font-size="14.00">a</text>
</g>
<!-- 9 -->
<g id="node10" class="node"><title>9</title>
<ellipse fill="none" stroke="#000000" cx="99.7822" cy="-2084" rx="18" ry="18"/>
<text text-anchor="middle" x="99.7822" y="-2079.4" font-family="Times Roman,serif" font-size="14.00">9</text>
</g>
<!-- 8&#45;&gt;9 -->
<g id="edge18" class="edge"><title>8&#45;&gt;9</title>
<path fill="none" stroke="black" d="M99.7822,-2153.77C99.7822,-2141.85 99.7822,-2126.04 99.7822,-2112.48"/>
<polygon fill="black" stroke="black" points="103.282,-2112.21 99.7822,-2102.21 96.2823,-2112.21 103.282,-2112.21"/>
<text text-anchor="middle" x="102.782" y="-2123.4" font-family="Times Roman,serif" font-size="14.00">t</text>
</g>
<!-- 10 -->
<g id="node11" class="node"><title>10</title>
<ellipse fill="none" stroke="#000000" cx="99.7822" cy="-1991" rx="22.8079" ry="22.8079"/>
<text text-anchor="middle" x="99.7822" y="-1986.4" font-family="Times Roman,serif" font-size="14.00">10</text>
</g>
<!-- 9&#45;&gt;10 -->
<g id="edge20" class="edge"><title>9&#45;&gt;10</title>
<path fill="none" stroke="black" d="M99.7822,-2065.63C99.7822,-2053.9 99.7822,-2038.35 99.7822,-2024.48"/>
<polygon fill="black" stroke="black" points="103.282,-2024.29 99.7822,-2014.29 96.2823,-2024.29 103.282,-2024.29"/>
<text text-anchor="middle" x="104.282" y="-2035.4" font-family="Times Roman,serif" font-size="14.00">e</text>
</g>
<!-- 11 -->
<g id="node12" class="node"><title>11</title>
<ellipse fill="none" stroke="#000000" cx="99.7822" cy="-1893" rx="22.8079" ry="22.8079"/>
<text text-anchor="middle" x="99.7822" y="-1888.4" font-family="Times Roman,serif" font-size="14.00">11</text>
</g>
<!-- 10&#45;&gt;11 -->
<g id="edge22" class="edge"><title>10&#45;&gt;11</title>
<path fill="none" stroke="black" d="M99.7822,-1967.78C99.7822,-1955.33 99.7822,-1939.77 99.7822,-1926.08"/>
<polygon fill="black" stroke="black" points="103.282,-1926.06 99.7822,-1916.06 96.2823,-1926.06 103.282,-1926.06"/>
<text text-anchor="middle" x="105.782" y="-1937.4" font-family="Times Roman,serif" font-size="14.00">\t</text>
</g>
<!-- 12 -->
<g id="node13" class="node"><title>12</title>
<ellipse fill="none" stroke="#000000" cx="99.7822" cy="-1697" rx="22.8079" ry="22.8079"/>
<text text-anchor="middle" x="99.7822" y="-1692.4" font-family="Times Roman,serif" font-size="14.00">12</text>
</g>
<!-- 11&#45;&gt;12 -->
<g id="edge24" class="edge"><title>11&#45;&gt;12</title>
<path fill="none" stroke="black" d="M95.5428,-1870.12C93.0189,-1855.31 90.0651,-1835.59 88.7822,-1818 87.2949,-1797.61 87.2949,-1792.39 88.7822,-1772 89.7945,-1758.12 91.8471,-1742.91 93.908,-1729.84"/>
<polygon fill="black" stroke="black" points="97.3767,-1730.32 95.5428,-1719.88 90.4691,-1729.18 97.3767,-1730.32"/>
<text text-anchor="middle" x="92.7822" y="-1790.4" font-family="Times Roman,serif" font-size="14.00">ε</text>
</g>
<!-- 13 -->
<g id="node14" class="node"><title>13</title>
<ellipse fill="none" stroke="#000000" cx="128.782" cy="-1795" rx="22.8079" ry="22.8079"/>
<text text-anchor="middle" x="128.782" y="-1790.4" font-family="Times Roman,serif" font-size="14.00">13</text>
</g>
<!-- 11&#45;&gt;13 -->
<g id="edge26" class="edge"><title>11&#45;&gt;13</title>
<path fill="none" stroke="black" d="M106.363,-1870.76C110.182,-1857.86 115.058,-1841.38 119.287,-1827.09"/>
<polygon fill="black" stroke="black" points="122.746,-1827.73 122.228,-1817.15 116.034,-1825.75 122.746,-1827.73"/>
<text text-anchor="middle" x="119.782" y="-1839.4" font-family="Times Roman,serif" font-size="14.00">c</text>
</g>
<!-- 14 -->
<g id="node15" class="node"><title>14</title>
<ellipse fill="none" stroke="#000000" cx="61.7822" cy="-1599" rx="22.8079" ry="22.8079"/>
<text text-anchor="middle" x="61.7822" y="-1594.4" font-family="Times Roman,serif" font-size="14.00">14</text>
</g>
<!-- 12&#45;&gt;14 -->
<g id="edge30" class="edge"><title>12&#45;&gt;14</title>
<path fill="none" stroke="black" d="M91.3488,-1675.25C86.2323,-1662.06 79.6168,-1644.99 73.9412,-1630.36"/>
<polygon fill="black" stroke="black" points="77.0707,-1628.75 70.1921,-1620.69 70.5442,-1631.28 77.0707,-1628.75"/>
<text text-anchor="middle" x="87.7822" y="-1643.4" font-family="Times Roman,serif" font-size="14.00">ε</text>
</g>
<!-- 16 -->
<g id="node17" class="node"><title>16</title>
<ellipse fill="none" stroke="#000000" cx="93.7822" cy="-1403" rx="22.8079" ry="22.8079"/>
<text text-anchor="middle" x="93.7822" y="-1398.4" font-family="Times Roman,serif" font-size="14.00">16</text>
</g>
<!-- 12&#45;&gt;16 -->
<g id="edge32" class="edge"><title>12&#45;&gt;16</title>
<path fill="none" stroke="black" d="M99.3114,-1673.93C98.2559,-1622.21 95.6969,-1496.82 94.4659,-1436.5"/>
<polygon fill="black" stroke="black" points="97.9626,-1436.3 94.2592,-1426.37 90.964,-1436.44 97.9626,-1436.3"/>
<text text-anchor="middle" x="100.782" y="-1545.4" font-family="Times Roman,serif" font-size="14.00">ε</text>
</g>
<!-- 13&#45;&gt;12 -->
<g id="edge28" class="edge"><title>13&#45;&gt;12</title>
<path fill="none" stroke="black" d="M122.202,-1772.76C118.383,-1759.86 113.506,-1743.38 109.277,-1729.09"/>
<polygon fill="black" stroke="black" points="112.531,-1727.75 106.337,-1719.15 105.818,-1729.73 112.531,-1727.75"/>
<text text-anchor="middle" x="118.282" y="-1741.4" font-family="Times Roman,serif" font-size="14.00">.</text>
</g>
<!-- 15 -->
<g id="node16" class="node"><title>15</title>
<ellipse fill="none" stroke="#000000" cx="61.7822" cy="-1501" rx="22.8079" ry="22.8079"/>
<text text-anchor="middle" x="61.7822" y="-1496.4" font-family="Times Roman,serif" font-size="14.00">15</text>
</g>
<!-- 14&#45;&gt;15 -->
<g id="edge34" class="edge"><title>14&#45;&gt;15</title>
<path fill="none" stroke="black" d="M51.7662,-1578.07C47.8019,-1567.37 44.6399,-1554.09 46.7822,-1542 47.3641,-1538.72 48.189,-1535.35 49.1563,-1532.03"/>
<polygon fill="black" stroke="black" points="52.5527,-1532.9 52.3845,-1522.31 45.9098,-1530.7 52.5527,-1532.9"/>
<text text-anchor="middle" x="49.7822" y="-1545.4" font-family="Times Roman,serif" font-size="14.00"> </text>
</g>
<!-- 15&#45;&gt;14 -->
<g id="edge36" class="edge"><title>15&#45;&gt;14</title>
<path fill="none" stroke="black" d="M61.7822,-1524.06C61.7822,-1536.48 61.7822,-1552.02 61.7822,-1565.73"/>
<polygon fill="black" stroke="black" points="58.2823,-1565.78 61.7822,-1575.78 65.2823,-1565.78 58.2823,-1565.78"/>
<text text-anchor="middle" x="65.7822" y="-1545.4" font-family="Times Roman,serif" font-size="14.00">ε</text>
</g>
<!-- 15&#45;&gt;16 -->
<g id="edge38" class="edge"><title>15&#45;&gt;16</title>
<path fill="none" stroke="black" d="M69.0435,-1478.76C73.2986,-1465.73 78.7431,-1449.06 83.4407,-1434.67"/>
<polygon fill="black" stroke="black" points="86.7727,-1435.74 86.5497,-1425.15 80.1185,-1433.57 86.7727,-1435.74"/>
<text text-anchor="middle" x="83.7822" y="-1447.4" font-family="Times Roman,serif" font-size="14.00">ε</text>
</g>
<!-- 17 -->
<g id="node18" class="node"><title>17</title>
<ellipse fill="none" stroke="#000000" cx="97.7822" cy="-1207" rx="22.8079" ry="22.8079"/>
<text text-anchor="middle" x="97.7822" y="-1202.4" font-family="Times Roman,serif" font-size="14.00">17</text>
</g>
<!-- 16&#45;&gt;17 -->
<g id="edge40" class="edge"><title>16&#45;&gt;17</title>
<path fill="none" stroke="black" d="M90.6409,-1379.79C87.7642,-1355.42 84.3023,-1316 86.7822,-1282 87.7945,-1268.12 89.8471,-1252.91 91.908,-1239.84"/>
<polygon fill="black" stroke="black" points="95.3767,-1240.32 93.5428,-1229.88 88.4691,-1239.18 95.3767,-1240.32"/>
<text text-anchor="middle" x="90.7822" y="-1300.4" font-family="Times Roman,serif" font-size="14.00">ε</text>
</g>
<!-- 18 -->
<g id="node19" class="node"><title>18</title>
<ellipse fill="none" stroke="#000000" cx="126.782" cy="-1305" rx="22.8079" ry="22.8079"/>
<text text-anchor="middle" x="126.782" y="-1300.4" font-family="Times Roman,serif" font-size="14.00">18</text>
</g>
<!-- 16&#45;&gt;18 -->
<g id="edge42" class="edge"><title>16&#45;&gt;18</title>
<path fill="none" stroke="black" d="M101.27,-1380.76C105.689,-1367.64 111.352,-1350.82 116.22,-1336.37"/>
<polygon fill="black" stroke="black" points="119.563,-1337.41 119.437,-1326.81 112.929,-1335.17 119.563,-1337.41"/>
<text text-anchor="middle" x="114.782" y="-1349.4" font-family="Times Roman,serif" font-size="14.00">[</text>
</g>
<!-- 19 -->
<g id="node20" class="node"><title>19</title>
<ellipse fill="none" stroke="#000000" cx="97.7822" cy="-1109" rx="22.8079" ry="22.8079"/>
<text text-anchor="middle" x="97.7822" y="-1104.4" font-family="Times Roman,serif" font-size="14.00">19</text>
</g>
<!-- 17&#45;&gt;19 -->
<g id="edge46" class="edge"><title>17&#45;&gt;19</title>
<path fill="none" stroke="black" d="M97.7822,-1183.78C97.7822,-1171.33 97.7822,-1155.77 97.7822,-1142.08"/>
<polygon fill="black" stroke="black" points="101.282,-1142.06 97.7822,-1132.06 94.2823,-1142.06 101.282,-1142.06"/>
<text text-anchor="middle" x="101.782" y="-1153.4" font-family="Times Roman,serif" font-size="14.00">ε</text>
</g>
<!-- 18&#45;&gt;17 -->
<g id="edge44" class="edge"><title>18&#45;&gt;17</title>
<path fill="none" stroke="black" d="M120.202,-1282.76C116.383,-1269.86 111.506,-1253.38 107.277,-1239.09"/>
<polygon fill="black" stroke="black" points="110.531,-1237.75 104.337,-1229.15 103.818,-1239.73 110.531,-1237.75"/>
<text text-anchor="middle" x="116.782" y="-1251.4" font-family="Times Roman,serif" font-size="14.00">[</text>
</g>
<!-- 20 -->
<g id="node21" class="node"><title>20</title>
<ellipse fill="none" stroke="#000000" cx="97.7822" cy="-1011" rx="22.8079" ry="22.8079"/>
<text text-anchor="middle" x="97.7822" y="-1006.4" font-family="Times Roman,serif" font-size="14.00">20</text>
</g>
<!-- 19&#45;&gt;20 -->
<g id="edge48" class="edge"><title>19&#45;&gt;20</title>
<path fill="none" stroke="black" d="M80.7356,-1093.07C74.4483,-1086.06 68.0625,-1077.31 64.7822,-1068 60.6249,-1056.2 66.0438,-1044.08 73.615,-1034.07"/>
<polygon fill="black" stroke="black" points="76.4948,-1036.08 80.318,-1026.2 71.1674,-1031.54 76.4948,-1036.08"/>
<text text-anchor="middle" x="87.2822" y="-1055.4" font-family="Times Roman,serif" font-size="14.00">/[1&#45;9]/</text>
</g>
<!-- 20&#45;&gt;19 -->
<g id="edge50" class="edge"><title>20&#45;&gt;19</title>
<path fill="none" stroke="black" d="M105.96,-1032.54C109.058,-1043.15 111.475,-1056.19 109.782,-1068 109.344,-1071.06 108.73,-1074.21 108.011,-1077.34"/>
<polygon fill="black" stroke="black" points="104.595,-1076.56 105.432,-1087.13 111.364,-1078.35 104.595,-1076.56"/>
<text text-anchor="middle" x="113.782" y="-1055.4" font-family="Times Roman,serif" font-size="14.00">ε</text>
</g>
<!-- 21 -->
<g id="node22" class="node"><title>21</title>
<ellipse fill="none" stroke="#000000" cx="97.7822" cy="-913" rx="22.8079" ry="22.8079"/>
<text text-anchor="middle" x="97.7822" y="-908.4" font-family="Times Roman,serif" font-size="14.00">21</text>
</g>
<!-- 20&#45;&gt;21 -->
<g id="edge52" class="edge"><title>20&#45;&gt;21</title>
<path fill="none" stroke="black" d="M97.7822,-987.775C97.7822,-975.327 97.7822,-959.775 97.7822,-946.083"/>
<polygon fill="black" stroke="black" points="101.282,-946.058 97.7822,-936.058 94.2823,-946.058 101.282,-946.058"/>
<text text-anchor="middle" x="101.782" y="-957.4" font-family="Times Roman,serif" font-size="14.00">ε</text>
</g>
<!-- 22 -->
<g id="node23" class="node"><title>22</title>
<ellipse fill="none" stroke="#000000" cx="59.7822" cy="-815" rx="22.8079" ry="22.8079"/>
<text text-anchor="middle" x="59.7822" y="-810.4" font-family="Times Roman,serif" font-size="14.00">22</text>
</g>
<!-- 21&#45;&gt;22 -->
<g id="edge54" class="edge"><title>21&#45;&gt;22</title>
<path fill="none" stroke="black" d="M89.3488,-891.251C84.2323,-878.055 77.6168,-860.994 71.9412,-846.357"/>
<polygon fill="black" stroke="black" points="75.0707,-844.747 68.1921,-836.689 68.5442,-847.278 75.0707,-844.747"/>
<text text-anchor="middle" x="85.7822" y="-859.4" font-family="Times Roman,serif" font-size="14.00">ε</text>
</g>
<!-- 24 -->
<g id="node25" class="node"><title>24</title>
<ellipse fill="none" stroke="#000000" cx="91.7822" cy="-619" rx="22.8079" ry="22.8079"/>
<text text-anchor="middle" x="91.7822" y="-614.4" font-family="Times Roman,serif" font-size="14.00">24</text>
</g>
<!-- 21&#45;&gt;24 -->
<g id="edge56" class="edge"><title>21&#45;&gt;24</title>
<path fill="none" stroke="black" d="M97.3114,-889.93C96.2559,-838.212 93.6969,-712.817 92.4659,-652.5"/>
<polygon fill="black" stroke="black" points="95.9626,-652.296 92.2592,-642.369 88.964,-652.439 95.9626,-652.296"/>
<text text-anchor="middle" x="98.7822" y="-761.4" font-family="Times Roman,serif" font-size="14.00">ε</text>
</g>
<!-- 23 -->
<g id="node24" class="node"><title>23</title>
<ellipse fill="none" stroke="#000000" cx="59.7822" cy="-717" rx="22.8079" ry="22.8079"/>
<text text-anchor="middle" x="59.7822" y="-712.4" font-family="Times Roman,serif" font-size="14.00">23</text>
</g>
<!-- 22&#45;&gt;23 -->
<g id="edge58" class="edge"><title>22&#45;&gt;23</title>
<path fill="none" stroke="black" d="M38.3608,-805.845C25.5006,-799.089 10.2325,-788.536 2.78223,-774 -6.07789,-756.713 11.4273,-741.415 29.3117,-731.031"/>
<polygon fill="black" stroke="black" points="31.4066,-733.879 38.561,-726.064 28.095,-727.712 31.4066,-733.879"/>
<text text-anchor="middle" x="25.2822" y="-761.4" font-family="Times Roman,serif" font-size="14.00">/[0&#45;9]/</text>
</g>
<!-- 23&#45;&gt;22 -->
<g id="edge60" class="edge"><title>23&#45;&gt;22</title>
<path fill="none" stroke="black" d="M59.7822,-740.058C59.7822,-752.479 59.7822,-768.025 59.7822,-781.733"/>
<polygon fill="black" stroke="black" points="56.2823,-781.775 59.7822,-791.775 63.2823,-781.775 56.2823,-781.775"/>
<text text-anchor="middle" x="63.7822" y="-761.4" font-family="Times Roman,serif" font-size="14.00">ε</text>
</g>
<!-- 23&#45;&gt;24 -->
<g id="edge62" class="edge"><title>23&#45;&gt;24</title>
<path fill="none" stroke="black" d="M67.0435,-694.762C71.2986,-681.731 76.7431,-665.057 81.4407,-650.671"/>
<polygon fill="black" stroke="black" points="84.7727,-651.742 84.5497,-641.15 78.1185,-649.569 84.7727,-651.742"/>
<text text-anchor="middle" x="81.7822" y="-663.4" font-family="Times Roman,serif" font-size="14.00">ε</text>
</g>
<!-- 25 -->
<g id="node26" class="node"><title>25</title>
<ellipse fill="none" stroke="#000000" cx="95.7822" cy="-423" rx="22.8079" ry="22.8079"/>
<text text-anchor="middle" x="95.7822" y="-418.4" font-family="Times Roman,serif" font-size="14.00">25</text>
</g>
<!-- 24&#45;&gt;25 -->
<g id="edge64" class="edge"><title>24&#45;&gt;25</title>
<path fill="none" stroke="black" d="M88.6409,-595.79C85.7642,-571.422 82.3023,-531.998 84.7822,-498 85.7945,-484.122 87.8471,-468.914 89.908,-455.842"/>
<polygon fill="black" stroke="black" points="93.3767,-456.317 91.5428,-445.882 86.4691,-455.183 93.3767,-456.317"/>
<text text-anchor="middle" x="88.7822" y="-516.4" font-family="Times Roman,serif" font-size="14.00">ε</text>
</g>
<!-- 26 -->
<g id="node27" class="node"><title>26</title>
<ellipse fill="none" stroke="#000000" cx="124.782" cy="-521" rx="22.8079" ry="22.8079"/>
<text text-anchor="middle" x="124.782" y="-516.4" font-family="Times Roman,serif" font-size="14.00">26</text>
</g>
<!-- 24&#45;&gt;26 -->
<g id="edge66" class="edge"><title>24&#45;&gt;26</title>
<path fill="none" stroke="black" d="M99.2704,-596.762C103.689,-583.639 109.352,-566.822 114.22,-552.368"/>
<polygon fill="black" stroke="black" points="117.563,-553.406 117.437,-542.812 110.929,-551.172 117.563,-553.406"/>
<text text-anchor="middle" x="112.782" y="-565.4" font-family="Times Roman,serif" font-size="14.00">]</text>
</g>
<!-- 27 -->
<g id="node28" class="node"><title>27</title>
<ellipse fill="none" stroke="#000000" cx="57.7822" cy="-325" rx="22.8079" ry="22.8079"/>
<text text-anchor="middle" x="57.7822" y="-320.4" font-family="Times Roman,serif" font-size="14.00">27</text>
</g>
<!-- 25&#45;&gt;27 -->
<g id="edge70" class="edge"><title>25&#45;&gt;27</title>
<path fill="none" stroke="black" d="M87.3488,-401.251C82.2323,-388.055 75.6168,-370.994 69.9412,-356.357"/>
<polygon fill="black" stroke="black" points="73.0707,-354.747 66.1921,-346.689 66.5442,-357.278 73.0707,-354.747"/>
<text text-anchor="middle" x="83.7822" y="-369.4" font-family="Times Roman,serif" font-size="14.00">ε</text>
</g>
<!-- 29 -->
<g id="node30" class="node"><title>29</title>
<ellipse fill="none" stroke="#000000" cx="89.7822" cy="-129" rx="22.8079" ry="22.8079"/>
<text text-anchor="middle" x="89.7822" y="-124.4" font-family="Times Roman,serif" font-size="14.00">29</text>
</g>
<!-- 25&#45;&gt;29 -->
<g id="edge72" class="edge"><title>25&#45;&gt;29</title>
<path fill="none" stroke="black" d="M95.3114,-399.93C94.2559,-348.212 91.6969,-222.817 90.4659,-162.5"/>
<polygon fill="black" stroke="black" points="93.9626,-162.296 90.2592,-152.369 86.964,-162.439 93.9626,-162.296"/>
<text text-anchor="middle" x="96.7822" y="-271.4" font-family="Times Roman,serif" font-size="14.00">ε</text>
</g>
<!-- 26&#45;&gt;25 -->
<g id="edge68" class="edge"><title>26&#45;&gt;25</title>
<path fill="none" stroke="black" d="M118.202,-498.762C114.383,-485.856 109.506,-469.378 105.277,-455.087"/>
<polygon fill="black" stroke="black" points="108.531,-453.746 102.337,-445.15 101.818,-455.732 108.531,-453.746"/>
<text text-anchor="middle" x="114.782" y="-467.4" font-family="Times Roman,serif" font-size="14.00">]</text>
</g>
<!-- 28 -->
<g id="node29" class="node"><title>28</title>
<ellipse fill="none" stroke="#000000" cx="57.7822" cy="-227" rx="22.8079" ry="22.8079"/>
<text text-anchor="middle" x="57.7822" y="-222.4" font-family="Times Roman,serif" font-size="14.00">28</text>
</g>
<!-- 27&#45;&gt;28 -->
<g id="edge74" class="edge"><title>27&#45;&gt;28</title>
<path fill="none" stroke="black" d="M48.3845,-303.689C46.082,-297.465 43.9459,-290.568 42.7822,-284 41.2424,-275.31 42.4429,-266.005 44.7119,-257.486"/>
<polygon fill="black" stroke="black" points="48.0552,-258.522 47.7662,-247.931 41.3875,-256.391 48.0552,-258.522"/>
<text text-anchor="middle" x="45.7822" y="-271.4" font-family="Times Roman,serif" font-size="14.00"> </text>
</g>
<!-- 28&#45;&gt;27 -->
<g id="edge76" class="edge"><title>28&#45;&gt;27</title>
<path fill="none" stroke="black" d="M57.7822,-250.058C57.7822,-262.479 57.7822,-278.025 57.7822,-291.733"/>
<polygon fill="black" stroke="black" points="54.2823,-291.775 57.7822,-301.775 61.2823,-291.775 54.2823,-291.775"/>
<text text-anchor="middle" x="61.7822" y="-271.4" font-family="Times Roman,serif" font-size="14.00">ε</text>
</g>
<!-- 28&#45;&gt;29 -->
<g id="edge78" class="edge"><title>28&#45;&gt;29</title>
<path fill="none" stroke="black" d="M65.0435,-204.762C69.2986,-191.731 74.7431,-175.057 79.4407,-160.671"/>
<polygon fill="black" stroke="black" points="82.7727,-161.742 82.5497,-151.15 76.1185,-159.569 82.7727,-161.742"/>
<text text-anchor="middle" x="79.7822" y="-173.4" font-family="Times Roman,serif" font-size="14.00">ε</text>
</g>
<!-- 30 -->
<g id="node31" class="node"><title>30</title>
<ellipse fill="none" stroke="#000000" cx="89.7822" cy="-27" rx="22.8079" ry="22.8079"/>
<ellipse fill="none" stroke="#000000" cx="89.7822" cy="-27" rx="26.8079" ry="26.8079"/>
<text text-anchor="middle" x="89.7822" y="-22.4" font-family="Times Roman,serif" font-size="14.00">30</text>
</g>
<!-- 29&#45;&gt;30 -->
<g id="edge80" class="edge"><title>29&#45;&gt;30</title>
<path fill="none" stroke="black" d="M81.497,-107.168C79.5536,-101.056 77.7643,-94.3463 76.7822,-88 75.4873,-79.6317 76.1967,-70.6837 77.8066,-62.291"/>
<polygon fill="black" stroke="black" points="81.249,-62.9425 80.1429,-52.4056 74.4367,-61.3325 81.249,-62.9425"/>
<text text-anchor="middle" x="80.7822" y="-75.4" font-family="Times Roman,serif" font-size="14.00">ε</text>
</g>
<!-- 29&#45;&gt;30 -->
<g id="edge82" class="edge"><title>29&#45;&gt;30</title>
<path fill="none" stroke="black" d="M89.7822,-105.855C89.7822,-93.5829 89.7822,-78.2074 89.7822,-64.2999"/>
<polygon fill="black" stroke="black" points="93.2823,-64.0266 89.7822,-54.0266 86.2823,-64.0267 93.2823,-64.0266"/>
<text text-anchor="middle" x="92.2822" y="-75.4" font-family="Times Roman,serif" font-size="14.00">.</text>
</g>
</g>
</svg>
